<svg width="60" height="60" viewBox="0 0 60 60" fill="none" xmlns="http://www.w3.org/2000/svg">
<path d="M0 41.8365V49.1467H23.494C23.6411 47.2615 24.5654 45.5977 25.9442 44.4847V41.8364L0 41.8365Z" fill="#DC8630"/>
<path d="M23.6112 51.0502H0V52.3161H24.0122C23.8389 51.9132 23.7031 51.4897 23.6112 51.0502Z" fill="#DC8630"/>
<path d="M30 56.3053C29.2345 56.3053 28.5025 56.1641 27.8192 55.9171V60L29.4543 58.8113C29.7802 58.5752 30.2198 58.5752 30.5456 58.8113L32.1807 60V55.9171C31.4976 56.164 30.7656 56.3053 30 56.3053Z" fill="#DC8630"/>
<path d="M30 44.17C27.0107 44.17 24.5788 46.6391 24.5788 49.6737C24.5788 52.7083 27.0107 55.1774 30 55.1774C32.9893 55.1774 35.4212 52.7082 35.4212 49.6737C35.4212 46.6389 32.9893 44.17 30 44.17ZM30 53.3525C28.0023 53.3525 26.3763 51.7017 26.3763 49.6737C26.3763 47.6456 28.0023 45.9949 30 45.9949C31.9977 45.9949 33.6237 47.6456 33.6237 49.6737C33.6237 51.7017 31.9977 53.3525 30 53.3525Z" fill="#DC8630"/>
<path d="M30 51.4488C30.9656 51.4488 31.7484 50.6541 31.7484 49.6738C31.7484 48.6935 30.9656 47.8988 30 47.8988C29.0344 47.8988 28.2516 48.6935 28.2516 49.6738C28.2516 50.6541 29.0344 51.4488 30 51.4488Z" fill="#DC8630"/>
<path d="M36.3887 51.0502C36.2969 51.4899 36.1611 51.9132 35.9878 52.3161H60V51.0502H36.3887Z" fill="#DC8630"/>
<path d="M27.8192 41.8365V43.4304C28.5024 43.1833 29.2344 43.0421 30 43.0421C30.7656 43.0421 31.4975 43.1833 32.1807 43.4304V41.8365H27.8192Z" fill="#DC8630"/>
<path d="M48.5174 20.723C48.2326 18.4496 47.5369 16.2607 46.4474 14.2057L30.4339 18.8716C30.1509 18.9553 29.8507 18.9553 29.566 18.8716L17.1991 15.2683V20.2752C18.8866 20.704 20.1453 22.2445 20.1453 24.0885C20.1453 24.7563 19.982 25.3974 19.6749 25.9675C23.3925 27.3442 26.6269 28.2834 29.522 28.8194C29.7931 28.8687 30.0705 28.8697 30.3469 28.8177C35.4062 27.8705 40.891 26.0479 47.1139 23.2456C48.0871 22.807 48.6521 21.7928 48.5174 20.723Z" fill="#DC8630"/>
<path d="M30 0L0.798245 8.50911L13.354 12.1674L15.6222 12.828C15.7109 12.7426 15.8101 12.668 15.9293 12.622L26.1843 8.67078C26.1804 8.61618 26.163 8.56486 26.163 8.50911C26.163 6.90768 27.8486 5.65386 30 5.65386C32.1514 5.65386 33.837 6.90768 33.837 8.50911C33.837 10.1105 32.1514 11.3644 30 11.3644C28.8117 11.3644 27.7785 10.9733 27.0799 10.361L18.501 13.6668L30 17.0172L46.6416 12.1683C46.6421 12.168 46.6426 12.1683 46.6431 12.168L59.2016 8.50911L30 0Z" fill="#DC8630"/>
<path d="M30 7.5574C28.8207 7.5574 28.0379 8.13002 28.0379 8.50911C28.0379 8.88833 28.8207 9.46082 30 9.46082C31.1792 9.46082 31.9621 8.8882 31.9621 8.50911C31.9621 8.13002 31.1792 7.5574 30 7.5574Z" fill="#DC8630"/>
<path d="M34.0557 41.8365V44.4849C35.4344 45.5979 36.3588 47.2615 36.506 49.1468H60V41.8367L34.0557 41.8365Z" fill="#DC8630"/>
<path d="M13.5489 14.2048C12.464 16.2514 11.7691 18.43 11.4825 20.6923C11.3649 21.6143 11.7911 22.5185 12.5413 23.0197C12.9191 21.6697 13.9778 20.6172 15.3242 20.2752V14.7219L13.5489 14.2048Z" fill="#DC8630"/>
<path d="M13.2669 35.9103H19.2563L17.385 26.4252C17.3217 26.1073 17.4234 25.7793 17.6533 25.5534C18.0516 25.1639 18.2704 24.6434 18.2704 24.0885C18.2704 22.9638 17.3694 22.0493 16.2616 22.0493C15.1537 22.0493 14.2529 22.9638 14.2529 24.0885C14.2529 24.6434 14.4716 25.1639 14.8699 25.5534C15.0997 25.7793 15.2014 26.1073 15.1381 26.4252L13.2669 35.9103Z" fill="#DC8630"/>
</svg>
