<svg width="70" height="60" viewBox="0 0 70 60" fill="none" xmlns="http://www.w3.org/2000/svg">
<path fill-rule="evenodd" clip-rule="evenodd" d="M58.6655 40.2473L61.5253 47.2306L69.0517 47.7904L63.2933 52.6676L65.089 60L58.6711 56.0262L52.2531 60L54.0488 52.6676L48.2793 47.7904L55.8057 47.2306L58.6655 40.2473ZM0.948242 55.8765C1.64103 46.8759 -0.126959 47.2694 7.41608 44.4428C11.1793 43.0351 15.9844 41.2449 19.4373 39.0945C24.3644 43.6503 27.141 49.0097 25.894 55.8765H0.948242ZM23.9154 33.9291C24.0817 32.5436 19.9804 27.2729 19.2378 24.7456C17.636 22.1961 17.0652 18.1447 18.8165 15.4512C19.5149 14.3815 19.2156 12.475 19.2156 11.0007C19.2156 -3.66414 44.9151 -3.66968 44.9151 11.0007C44.9151 12.8574 44.4884 14.2651 45.4971 15.7227C47.1819 18.1613 46.3118 22.4843 44.893 24.7511C43.984 27.4059 39.6832 32.4272 39.9825 33.9347C40.2319 41.4611 23.8656 41.2117 23.9154 33.9291ZM43.8566 38.3242C46.9325 40.2861 51.2555 41.9155 54.7804 43.1016L53.8825 45.2908L41.3016 46.2219L50.9451 54.3801L50.5793 55.871H37.1836C36.1084 49.6581 37.9873 43.7667 43.8566 38.3242Z" fill="#DC8630"/>
</svg>
