<svg width="24" height="24" viewBox="0 0 24 24" fill="none" xmlns="http://www.w3.org/2000/svg">
<path fill-rule="evenodd" clip-rule="evenodd" d="M11.5 3H3V9H11.5V3ZM7.25 8C7.38261 8 7.50979 7.94732 7.60355 7.85355C7.69732 7.75979 7.75 7.63261 7.75 7.5C7.75 7.36739 7.69732 7.24021 7.60355 7.14645C7.50979 7.05268 7.38261 7 7.25 7C7.11739 7 6.99021 7.05268 6.89645 7.14645C6.80268 7.24021 6.75 7.36739 6.75 7.5C6.75 7.63261 6.80268 7.75979 6.89645 7.85355C6.99021 7.94732 7.11739 8 7.25 8ZM6.75 4.5C6.75 4.36739 6.80268 4.24021 6.89645 4.14645C6.99021 4.05268 7.11739 4 7.25 4C7.38261 4 7.50979 4.05268 7.60355 4.14645C7.69732 4.24021 7.75 4.36739 7.75 4.5V6C7.75 6.13261 7.69732 6.25979 7.60355 6.35355C7.50979 6.44732 7.38261 6.5 7.25 6.5C7.11739 6.5 6.99021 6.44732 6.89645 6.35355C6.80268 6.25979 6.75 6.13261 6.75 6V4.5ZM21 3H12.5V9H21V3ZM20.1035 4.6035L17.25 7.457L16 6.207L14.8535 7.3535L14.1465 6.6465L16 4.793L17.25 6.043L19.3965 3.8965L20.1035 4.6035ZM3 16V10H11.5V12.0415C11.0685 12.1144 10.6582 12.2808 10.2978 12.5291C9.93746 12.7773 9.63573 13.1013 9.41379 13.4785C9.19185 13.8556 9.05507 14.2767 9.01304 14.7123C8.97102 15.1479 9.02476 15.5874 9.1705 16H3ZM4.5 12.5V11.5H5.5V12.5H4.5ZM4.5 13.5V14.5H5.5V13.5H4.5ZM6.5 12.5V11.5H7.5V12.5H6.5ZM6.5 13.5V14.5H7.5V13.5H6.5ZM8.5 12.5V11.5H9.5V12.5H8.5ZM15 15C15.0003 15.3406 14.9427 15.6788 14.8295 16H21V10H12.5V12.0415C13.919 12.2795 15 13.5135 15 15ZM16 12.5H19.5C19.6326 12.5 19.7598 12.4473 19.8536 12.3536C19.9473 12.2598 20 12.1326 20 12C20 11.8674 19.9473 11.7402 19.8536 11.6464C19.7598 11.5527 19.6326 11.5 19.5 11.5H16C15.8674 11.5 15.7402 11.5527 15.6464 11.6464C15.5527 11.7402 15.5 11.8674 15.5 12C15.5 12.1326 15.5527 12.2598 15.6464 12.3536C15.7402 12.4473 15.8674 12.5 16 12.5ZM16 14C16 14.1326 16.0527 14.2598 16.1464 14.3536C16.2402 14.4473 16.3674 14.5 16.5 14.5H19.5C19.6326 14.5 19.7598 14.4473 19.8536 14.3536C19.9473 14.2598 20 14.1326 20 14C20 13.8674 19.9473 13.7402 19.8536 13.6464C19.7598 13.5527 19.6326 13.5 19.5 13.5H16.5C16.3674 13.5 16.2402 13.5527 16.1464 13.6464C16.0527 13.7402 16 13.8674 16 14Z" fill="#7F7F7F"/>
<path d="M14 15C14 15.5304 13.7893 16.0391 13.4142 16.4142C13.0391 16.7893 12.5304 17 12 17C11.4696 17 10.9609 16.7893 10.5858 16.4142C10.2107 16.0391 10 15.5304 10 15C10 14.4696 10.2107 13.9609 10.5858 13.5858C10.9609 13.2107 11.4696 13 12 13C12.5304 13 13.0391 13.2107 13.4142 13.5858C13.7893 13.9609 14 14.4696 14 15ZM12 17.5C11.2235 17.5098 10.4503 17.6036 9.694 17.78C9.312 17.8725 8.9335 17.996 8.6385 18.161C8.3805 18.3055 8 18.5875 8 19.061V21H16V19.0605C16 18.5875 15.6195 18.3055 15.3615 18.1605C15.0665 17.996 14.688 17.8725 14.306 17.78C13.5497 17.6036 12.7765 17.5098 12 17.5Z" fill="#7F7F7F"/>
</svg>
