<svg width="12" height="12" viewBox="0 0 12 12" fill="none" xmlns="http://www.w3.org/2000/svg">
<g id="Vector">
<path d="M3.45006 0.444444C3.45006 0.32657 3.40265 0.213524 3.31826 0.130175C3.23387 0.0468253 3.11941 0 3.00006 0C2.88071 0 2.76625 0.0468253 2.68186 0.130175C2.59747 0.213524 2.55006 0.32657 2.55006 0.444444V1.38074C1.68606 1.44889 1.11966 1.616 0.703261 2.02785C0.286261 2.43911 0.117061 2.99911 0.0474609 3.85185H11.9527C11.8831 2.99852 11.7139 2.43911 11.2969 2.02785C10.8805 1.616 10.3135 1.44889 9.45006 1.38015V0.444444C9.45006 0.32657 9.40265 0.213524 9.31826 0.130175C9.23387 0.0468253 9.11941 0 9.00006 0C8.88071 0 8.76625 0.0468253 8.68186 0.130175C8.59747 0.213524 8.55006 0.32657 8.55006 0.444444V1.34104C8.15106 1.33333 7.70346 1.33333 7.20006 1.33333H4.80006C4.29666 1.33333 3.84906 1.33333 3.45006 1.34104V0.444444Z" fill="#5C5C5C"/>
<path fill-rule="evenodd" clip-rule="evenodd" d="M0 6.07407C0 5.57689 6.70552e-09 5.13481 0.00780001 4.74074H11.9922C12 5.13481 12 5.57689 12 6.07407V7.25926C12 9.49393 12 10.6116 11.2968 11.3055C10.5936 11.9994 9.4626 12 7.2 12H4.8C2.5374 12 1.4058 12 0.7032 11.3055C0.000599957 10.611 0 9.49393 0 7.25926V6.07407ZM9 7.25926C9.15913 7.25926 9.31174 7.19683 9.42426 7.08569C9.53679 6.97456 9.6 6.82383 9.6 6.66667C9.6 6.5095 9.53679 6.35877 9.42426 6.24764C9.31174 6.13651 9.15913 6.07407 9 6.07407C8.84087 6.07407 8.68826 6.13651 8.57574 6.24764C8.46321 6.35877 8.4 6.5095 8.4 6.66667C8.4 6.82383 8.46321 6.97456 8.57574 7.08569C8.68826 7.19683 8.84087 7.25926 9 7.25926ZM9 9.62963C9.15913 9.62963 9.31174 9.5672 9.42426 9.45606C9.53679 9.34493 9.6 9.1942 9.6 9.03704C9.6 8.87987 9.53679 8.72914 9.42426 8.61801C9.31174 8.50688 9.15913 8.44444 9 8.44444C8.84087 8.44444 8.68826 8.50688 8.57574 8.61801C8.46321 8.72914 8.4 8.87987 8.4 9.03704C8.4 9.1942 8.46321 9.34493 8.57574 9.45606C8.68826 9.5672 8.84087 9.62963 9 9.62963ZM6.6 6.66667C6.6 6.82383 6.53679 6.97456 6.42426 7.08569C6.31174 7.19683 6.15913 7.25926 6 7.25926C5.84087 7.25926 5.68826 7.19683 5.57574 7.08569C5.46321 6.97456 5.4 6.82383 5.4 6.66667C5.4 6.5095 5.46321 6.35877 5.57574 6.24764C5.68826 6.13651 5.84087 6.07407 6 6.07407C6.15913 6.07407 6.31174 6.13651 6.42426 6.24764C6.53679 6.35877 6.6 6.5095 6.6 6.66667ZM6.6 9.03704C6.6 9.1942 6.53679 9.34493 6.42426 9.45606C6.31174 9.5672 6.15913 9.62963 6 9.62963C5.84087 9.62963 5.68826 9.5672 5.57574 9.45606C5.46321 9.34493 5.4 9.1942 5.4 9.03704C5.4 8.87987 5.46321 8.72914 5.57574 8.61801C5.68826 8.50688 5.84087 8.44444 6 8.44444C6.15913 8.44444 6.31174 8.50688 6.42426 8.61801C6.53679 8.72914 6.6 8.87987 6.6 9.03704ZM3 7.25926C3.15913 7.25926 3.31174 7.19683 3.42426 7.08569C3.53679 6.97456 3.6 6.82383 3.6 6.66667C3.6 6.5095 3.53679 6.35877 3.42426 6.24764C3.31174 6.13651 3.15913 6.07407 3 6.07407C2.84087 6.07407 2.68826 6.13651 2.57574 6.24764C2.46321 6.35877 2.4 6.5095 2.4 6.66667C2.4 6.82383 2.46321 6.97456 2.57574 7.08569C2.68826 7.19683 2.84087 7.25926 3 7.25926ZM3 9.62963C3.15913 9.62963 3.31174 9.5672 3.42426 9.45606C3.53679 9.34493 3.6 9.1942 3.6 9.03704C3.6 8.87987 3.53679 8.72914 3.42426 8.61801C3.31174 8.50688 3.15913 8.44444 3 8.44444C2.84087 8.44444 2.68826 8.50688 2.57574 8.61801C2.46321 8.72914 2.4 8.87987 2.4 9.03704C2.4 9.1942 2.46321 9.34493 2.57574 9.45606C2.68826 9.5672 2.84087 9.62963 3 9.62963Z" fill="#5C5C5C"/>
</g>
</svg>
