<svg width="40" height="48" viewBox="0 0 40 48" fill="none" xmlns="http://www.w3.org/2000/svg">
<path d="M17.6463 35.1054C19.2133 35.1054 24.1097 35.1054 24.1097 35.1054C25.4088 35.1054 26.4609 34.2075 26.4609 33.1001C26.4609 31.9912 25.4088 31.0933 24.1097 31.0933C22.9357 31.0933 20.5845 31.0933 14.7081 31.0933C8.83176 31.0933 6.96967 33.1836 4.9136 34.9399L1.18084 37.7216C0.938861 37.9018 0.799805 38.1611 0.799805 38.4364V47.6839C0.799805 47.807 0.883941 47.9198 1.01608 47.9711C1.14657 48.0224 1.301 48.0047 1.41249 47.9227L8.62582 42.6449C8.87987 42.4603 9.21796 42.3827 9.54747 42.4325L20.7871 44.1771C21.5714 44.2987 22.3797 44.1448 23.0302 43.7523C23.0302 43.7523 37.3796 35.2372 38.4385 34.4844C39.4477 33.6933 39.4356 32.5464 38.5089 31.6836C37.5822 30.8208 35.8521 31.0039 34.6988 31.7334C33.6416 32.4849 26.4215 36.5351 26.4215 36.5351H17.6463L17.6171 36.5468C17.1555 36.5336 16.7933 36.2026 16.8088 35.8086C16.8259 35.4145 17.2121 35.1054 17.6738 35.1187L17.6463 35.1054Z" fill="white"/>
<path d="M23.8262 21.4621C23.6459 21.3332 23.4143 21.235 23.1294 21.1676C22.8462 21.1002 22.5029 21.0651 22.1014 21.0651H20.0762V24.1412H22.1099C22.5356 24.1412 22.8908 24.0973 23.1775 24.0108C23.4624 23.9229 23.6924 23.8072 23.8657 23.6622C24.0374 23.5172 24.1626 23.3473 24.2382 23.1539C24.3154 22.962 24.3532 22.7555 24.3532 22.5386C24.3532 22.3101 24.3102 22.1065 24.2262 21.9248C24.142 21.7447 24.0081 21.5895 23.8262 21.4621Z" fill="white"/>
<path d="M23.3182 19.3541C23.7215 19.1124 23.9223 18.7286 23.9223 18.2013C23.9223 17.6549 23.7404 17.2653 23.3783 17.0323C23.0161 16.8009 22.4498 16.6852 21.6792 16.6852H20.0762V19.7174H21.5522C22.3279 19.7174 22.9166 19.5958 23.3182 19.3541Z" fill="white"/>
<path d="M37.8309 18.175C35.5707 10.4832 26.8162 7.59015 26.0507 6.88553L28.2045 0.198604C28.2045 0.198604 25.5152 -0.542576 21.7463 0.838723C16.9529 2.59502 14.2825 0.355353 14.2825 0.355353L16.6492 6.991C15.906 7.71175 6.59716 10.9417 4.91015 18.5427C4.05374 22.3952 5.28602 27.2174 9.22132 30.4972C10.6441 30.0299 12.4152 29.7266 14.7081 29.7266H24.1096C26.2909 29.7266 28.0638 31.2398 28.0638 33.1001C28.0638 33.185 28.0501 33.2686 28.0432 33.3521C36.6141 30.8121 39.391 23.4777 37.8309 18.175ZM26.6033 23.8145C26.4042 24.1925 26.1158 24.5177 25.7366 24.7901C25.3573 25.064 24.8887 25.2765 24.3344 25.4317C23.7783 25.587 23.1433 25.6646 22.4293 25.6646H22.1804V26.7252H20.2376V25.6646H17.7903H16.9888V24.812C16.987 24.56 16.9699 24.4092 17.2531 24.3579C17.2771 24.3535 17.3131 24.3491 17.3595 24.3403C17.4058 24.3344 17.49 24.3213 17.6118 24.3022C17.7336 24.2832 17.5792 24.2598 17.7903 24.226V16.6135C17.5792 16.5827 17.7336 16.5564 17.6118 16.5388C17.49 16.5182 17.4058 16.5065 17.3595 16.4992C17.3131 16.4919 17.2771 16.486 17.2531 16.4831C16.9699 16.4318 16.987 16.281 16.9888 16.029V15.1779H17.7903H20.2376V14.0441H22.1804V15.1867C22.7726 15.2087 23.2925 15.2703 23.7388 15.3727C24.3087 15.5031 24.7771 15.6891 25.141 15.9308C25.5066 16.1725 25.7744 16.4641 25.9443 16.8082C26.1159 17.151 26.2 17.5392 26.2 17.9684C26.2 18.216 26.157 18.4517 26.073 18.6759C25.9872 18.9 25.8551 19.111 25.6766 19.3072C25.4981 19.502 25.2715 19.6807 24.9969 19.8404C24.7223 20.0002 24.748 20.1349 24.3687 20.2462C26.0558 20.5699 26.9002 21.3492 26.9002 22.5826C26.9002 23.0265 26.8007 23.4381 26.6033 23.8145Z" fill="white"/>
</svg>
