<svg width="48" height="48" viewBox="0 0 48 48" fill="none" xmlns="http://www.w3.org/2000/svg">
<path d="M15 47.9999V32.0548C13.2 31.1523 12 29.0463 12 26.9404V14.9064C12 12.8005 13.2 10.9954 15 9.79199V8.88945C15 5.5801 12.3 2.87246 9 2.87246C5.7 2.87246 3 5.5801 3 8.88945C3 12.1988 5.7 14.9064 9 14.9064H3C1.5 14.9064 0 16.4107 0 17.9149V29.9489C0 31.4531 1.5 32.9574 3 32.9574V47.9999H15ZM45 14.9064H39C42.3 14.9064 45 12.1988 45 8.88945C45 5.5801 42.3 2.87246 39 2.87246C35.7 2.87246 33 5.5801 33 8.88945V9.79199C34.8 10.9954 36 12.8005 36 14.9064V26.9404C36 29.0463 34.8 31.1523 33 32.0548V47.9999H45V32.9574C46.5 32.9574 48 31.4531 48 29.9489V17.9149C48 16.4107 46.5 14.9064 45 14.9064ZM30 5.88095C30.0181 6.68223 29.8763 7.47906 29.5831 8.22464C29.2898 8.97023 28.851 9.64955 28.2924 10.2227C27.7338 10.7959 27.0666 11.2514 26.33 11.5624C25.5934 11.8734 24.8023 12.0338 24.003 12.034C23.2038 12.0342 22.4126 11.8742 21.6759 11.5636C20.9391 11.2529 20.2717 10.7978 19.7128 10.2249C19.1539 9.65199 18.7147 8.97288 18.4211 8.22744C18.1275 7.482 17.9853 6.68525 18.003 5.88396C18.0377 4.31184 18.6847 2.8158 19.8055 1.71609C20.9264 0.616376 22.432 0.000393413 24 1.88382e-07C25.5681 -0.000393037 27.074 0.614834 28.1954 1.71398C29.3168 2.81313 29.9646 4.30885 30 5.88095Z" fill="white"/>
<path d="M30 11.8981H18C16.5 11.8981 15 13.4023 15 14.9066V26.9406C15 28.4448 16.5 29.949 18 29.949V48H30V29.949C31.5 29.949 33 28.4448 33 26.9406V14.9066C33 13.4023 31.5 11.8981 30 11.8981Z" fill="white"/>
</svg>
