<svg width="48" height="48" viewBox="0 0 48 48" fill="none" xmlns="http://www.w3.org/2000/svg">
<rect width="48" height="48" rx="24" fill="white"/>
<path d="M24 34C31.1812 34 37 28.1812 37 21C37 13.8187 31.1812 8 24 8C16.8188 8 11 13.8187 11 21C11 28.1812 16.8188 34 24 34ZM22.6125 14.0875V13.0375C22.6125 12.4625 23.075 12 23.65 12H24.3438C24.9188 12 25.3813 12.4625 25.3813 13.0375V14.1C26.35 14.15 27.2875 14.4812 28.0688 15.0625C28.4188 15.3187 28.4562 15.8313 28.1437 16.1313L27.125 17.1C26.8875 17.3313 26.5312 17.3375 26.25 17.1625C25.9125 16.95 25.5375 16.8438 25.1375 16.8438H22.7063C22.1438 16.8438 21.6875 17.3562 21.6875 17.9875C21.6875 18.5 22 18.9562 22.4438 19.0875L26.3375 20.2563C27.9438 20.7375 29.0688 22.2813 29.0688 24.0125C29.0688 26.1375 27.4188 27.8563 25.375 27.9125V28.9625C25.375 29.5375 24.9125 30 24.3375 30H23.6438C23.0688 30 22.6062 29.5375 22.6062 28.9625V27.9C21.6375 27.85 20.7 27.5187 19.9187 26.9375C19.5687 26.6812 19.5312 26.1687 19.8438 25.8687L20.8625 24.9C21.1 24.6687 21.4563 24.6625 21.7375 24.8375C22.075 25.05 22.45 25.1562 22.85 25.1562H25.2812C25.8438 25.1562 26.3 24.6438 26.3 24.0125C26.3 23.5 25.9875 23.0438 25.5438 22.9125L21.65 21.7437C20.0437 21.2625 18.9187 19.7188 18.9187 17.9875C18.925 15.8625 20.5688 14.1438 22.6125 14.0875ZM38 30H35.9688C34.7437 31.625 33.1812 32.9813 31.4062 34H35.3937C35.725 34 35.9937 34.225 35.9937 34.5V35.5C35.9937 35.775 35.725 36 35.3937 36H12.6C12.2687 36 12 35.775 12 35.5V34.5C12 34.225 12.2687 34 12.6 34H16.5875C14.8125 32.9813 13.2563 31.625 12.025 30H10C8.89375 30 8 30.8937 8 32V38C8 39.1063 8.89375 40 10 40H38C39.1063 40 40 39.1063 40 38V32C40 30.8937 39.1063 30 38 30Z" fill="#DC8630"/>
</svg>
