<svg width="72" height="60" viewBox="0 0 72 60" fill="none" xmlns="http://www.w3.org/2000/svg">
<path d="M18.984 50.4C16.148 48 15.7002 44.55 14.5061 41.55C13.7598 39.6 12.4164 37.95 11.073 36.3C12.8642 41.4 11.8193 45 16.148 48.6C15.4017 48.3 14.6553 47.7 14.0583 47.25C10.6252 44.4 5.55026 43.95 3.46057 39.3C4.05763 42.75 6.74437 45.75 9.58037 47.7C12.4164 49.5 15.9987 49.35 18.984 50.4ZM26.4472 52.2C26.8949 52.05 27.492 52.05 28.089 51.9C25.9994 51.6 24.0589 50.85 22.5663 49.5C20.3273 47.4 18.3869 45.3 15.9987 43.65C18.5362 48.75 19.4318 50.85 23.6111 51.75C23.6111 51.75 22.417 51.6 21.82 51.45C17.3421 50.55 11.9686 51.75 8.68479 48C10.0282 50.4 12.5656 52.35 14.9539 53.25C18.8347 54.45 22.8648 53.1 26.4472 52.2ZM32.4177 51.9C25.253 51.9 21.5215 58.2 14.5061 54C17.9391 58.2 23.4619 58.5 27.9398 55.65C29.7309 54.45 31.3728 52.8 33.6118 52.8C37.0449 52.8 40.7764 56.4 43.911 59.7C44.508 59.25 44.9558 58.8 45.4036 58.35C42.1198 55.2 37.3434 51.9 32.4177 51.9ZM12.2671 44.85C12.2671 44.85 11.3715 43.2 11.073 42.15C10.0282 38.1 10.6252 33.15 8.83406 29.25C9.13258 31.5 8.237 33.45 8.08774 35.55C7.78921 38.4 8.83406 40.35 9.58037 41.7C9.58037 41.7 8.53553 40.35 8.08774 39.6C5.99805 36.3 1.66941 34.05 1.37088 30C0.773828 38.85 6.89363 41.25 12.2671 44.85ZM10.1774 18.6C10.7745 17.4 11.073 15.9 11.3715 14.55C11.073 15.15 10.7745 15.75 10.3267 16.2C7.49069 18.6 5.84879 19.95 5.10247 23.7L5.401 20.4C5.69952 17.1 3.90836 13.5 5.84879 10.65C3.90836 12.75 2.86352 15.45 2.86352 18.15C2.86352 21.75 4.95321 24.3 5.10247 27.75C5.69952 24.15 8.68479 21.6 10.1774 18.6ZM9.13258 12C10.476 10.8 12.1179 9.74995 13.312 8.24995C14.6553 6.44995 15.8494 4.34995 17.6406 2.69995C15.2524 3.74995 12.5656 4.64995 10.9237 7.19995C10.0282 8.69995 9.8789 10.5 9.13258 12ZM6.14731 19.2C6.74437 18 7.78921 16.8 8.83406 15.9C11.5208 13.95 14.2075 11.4 14.3568 8.09995C12.8642 11.7 8.237 12.3 7.19216 16.05C7.19216 16.05 7.78921 13.8 7.93848 13.35C8.68479 10.8 8.53553 7.79995 11.073 6.14995C6.14731 7.19995 5.84879 12.6 6.14731 16.65C6.14731 17.55 6.29658 18.3 6.14731 19.2ZM6.89363 36.6C6.89363 36.6 6.5951 33.75 7.0429 32.55C8.237 28.95 9.43111 25.05 9.28185 21.3C8.08774 25.8 4.35615 27.3 5.99805 33.45C5.401 32.25 5.25173 30.9 4.80394 29.7C3.90836 26.4 1.37088 23.55 2.1172 19.65C0.923092 23.1 0.923092 25.8 2.1172 29.4C2.86352 32.1 5.55026 34.05 6.89363 36.6Z" fill="#DC8630"/>
<path d="M53.0161 50.4C55.8521 48 56.2999 44.55 57.494 41.55C58.2403 39.6 59.5837 37.95 60.9271 36.3C59.1359 41.4 60.1807 45 55.8521 48.6C56.5984 48.3 57.3447 47.7 57.9418 47.25C61.3748 44.4 66.4498 43.95 68.5395 39.3C67.9424 42.75 65.2557 45.75 62.4197 47.7C59.5837 49.5 56.0014 49.35 53.0161 50.4ZM45.5529 52.2C45.1051 52.05 44.5081 52.05 43.911 51.9C46.0007 51.6 47.9411 50.85 49.4338 49.5C51.6727 47.4 53.6131 45.3 56.0014 43.65C53.4639 48.75 52.5683 50.85 48.3889 51.75C48.3889 51.75 49.583 51.6 50.1801 51.45C54.658 50.55 60.0315 51.75 63.3153 48C61.9719 50.4 59.4344 52.35 57.0462 53.25C53.1653 54.45 49.1352 53.1 45.5529 52.2ZM39.5824 51.9C46.747 51.9 50.4786 58.2 57.494 54C54.0609 58.2 48.5382 58.5 44.0603 55.65C42.2691 54.45 40.6272 52.8 38.3883 52.8C34.9552 52.8 31.2236 56.4 28.0891 59.7C27.492 59.25 27.0442 58.8 26.5964 58.35C29.8802 55.2 34.6567 51.9 39.5824 51.9ZM59.7329 44.85C59.7329 44.85 60.6285 43.2 60.9271 42.15C61.9719 38.1 61.3748 33.15 63.166 29.25C62.8675 31.5 63.7631 33.45 63.9123 35.55C64.2108 38.4 63.166 40.35 62.4197 41.7C62.4197 41.7 63.4645 40.35 63.9123 39.6C66.002 36.3 70.3307 34.05 70.6292 30C71.2262 38.85 65.1064 41.25 59.7329 44.85ZM61.8226 18.6C61.2256 17.4 60.9271 15.9 60.6285 14.55C60.9271 15.15 61.2256 15.75 61.6734 16.2C64.5094 18.6 66.1513 19.95 66.8976 23.7L66.5991 20.4C66.3005 17.1 68.0917 13.5 66.1513 10.65C68.0917 12.75 69.1365 15.45 69.1365 18.15C69.1365 21.75 67.0469 24.3 66.8976 27.75C66.3005 24.15 63.3153 21.6 61.8226 18.6ZM62.8675 12C61.5241 10.8 59.8822 9.74995 58.6881 8.24995C57.3447 6.44995 56.1506 4.34995 54.3595 2.69995C56.7477 3.74995 59.4344 4.64995 61.0763 7.19995C61.9719 8.69995 62.1212 10.5 62.8675 12ZM65.8527 19.2C65.2557 18 64.2108 16.8 63.166 15.9C60.4793 13.95 57.7925 11.4 57.6433 8.09995C59.1359 11.7 63.7631 12.3 64.8079 16.05C64.8079 16.05 64.2108 13.8 64.0616 13.35C63.3153 10.8 63.4645 7.79995 60.9271 6.14995C65.8527 7.19995 66.1513 12.6 65.8527 16.65C65.8527 17.55 65.7035 18.3 65.8527 19.2ZM65.1064 36.6C65.1064 36.6 65.405 33.75 64.9572 32.55C63.7631 28.95 62.5689 25.05 62.7182 21.3C63.9123 25.8 67.6439 27.3 66.002 33.45C66.5991 32.25 66.7483 30.9 67.1961 29.7C68.0917 26.4 70.6292 23.55 69.8829 19.65C71.077 23.1 71.077 25.8 69.8829 29.4C69.1365 32.1 66.4498 34.05 65.1064 36.6Z" fill="#DC8630"/>
<path d="M36 49.5C49.4371 49.5 60.3299 38.5533 60.3299 25.05C60.3299 11.5466 49.4371 0.599976 36 0.599976C22.5629 0.599976 11.67 11.5466 11.67 25.05C11.67 38.5533 22.5629 49.5 36 49.5Z" stroke="#DC8630"/>
<path d="M36 44.3999C46.6342 44.3999 55.255 35.7367 55.255 25.0499C55.255 14.3632 46.6342 5.69995 36 5.69995C25.3657 5.69995 16.745 14.3632 16.745 25.0499C16.745 35.7367 25.3657 44.3999 36 44.3999Z" stroke="#DC8630"/>
<path d="M36 39.75C44.0787 39.75 50.6278 33.1686 50.6278 25.05C50.6278 16.9314 44.0787 10.35 36 10.35C27.9213 10.35 21.3722 16.9314 21.3722 25.05C21.3722 33.1686 27.9213 39.75 36 39.75Z" stroke="#DC8630"/>
<path d="M36 34.65C41.2759 34.65 45.5529 30.3519 45.5529 25.05C45.5529 19.748 41.2759 15.45 36 15.45C30.7241 15.45 26.4471 19.748 26.4471 25.05C26.4471 30.3519 30.7241 34.65 36 34.65Z" stroke="#DC8630"/>
<path d="M36 30C38.7204 30 40.9257 27.7838 40.9257 25.05C40.9257 22.3162 38.7204 20.1 36 20.1C33.2796 20.1 31.0743 22.3162 31.0743 25.05C31.0743 27.7838 33.2796 30 36 30Z" stroke="#DC8630"/>
<path d="M36 0.599976V20.1M36 30V49.5M18.8347 7.79998L32.5669 21.6M39.4331 28.5L53.1653 42.3M11.67 25.05H31.0743M40.9257 25.05H60.33M18.8347 42.3L32.5669 28.5M39.4331 21.6L53.1653 7.79998" stroke="#DC8630"/>
<path d="M34.8208 31.08C34.8805 30.96 35 30.48 35.1492 30.63C35.2985 30.78 35.388 30.63 35.388 30.63C35.388 30.63 35.4627 30.705 35.4179 30.855C35.388 31.005 35.3433 31.155 35.2537 31.185C35.1641 31.2 35.0895 31.26 34.9701 31.275C34.8805 31.29 34.8208 31.08 34.8208 31.08ZM36.0448 30.885C36.0747 30.855 36.1194 31.005 36.1941 30.975C36.2687 30.96 36.2986 31.11 36.2239 31.11C36.1493 31.11 36.1493 31.2 36.1493 31.245C36.1493 31.29 36.1493 31.38 36.0896 31.44C36.0299 31.5 35.9851 31.455 35.9105 31.425C35.8358 31.38 35.806 31.38 35.7015 31.38C35.6119 31.38 35.6866 31.53 35.6866 31.53C35.6866 31.53 35.2985 31.515 35.3731 31.455C35.4478 31.395 35.5224 31.38 35.4627 31.335C35.403 31.29 35.4627 31.26 35.4627 31.185C35.4627 31.11 35.6418 31.14 35.597 31.095C35.5373 31.035 35.597 30.825 35.6866 30.945L35.7463 30.81C35.6866 30.75 35.7313 30.735 35.6119 30.69C35.5075 30.645 35.597 30.42 35.597 30.42L35.6119 30.27C35.6418 30.075 36.0149 30.06 36.0448 30.225C36.0597 30.39 36.0448 30.51 36.0448 30.51L36.1493 30.555C36.1493 30.555 36.1344 30.675 36.0448 30.675C35.9552 30.675 36.0448 30.735 35.9851 30.795L36.0448 30.885ZM49.792 21.765C49.6875 21.87 49.4636 21.915 49.4636 21.915L49.389 22.2L49.2696 22.305C49.2696 22.305 49.2994 22.38 49.2696 22.56C49.2397 22.74 49.0158 22.845 49.0158 22.845L48.9113 22.965C48.9113 22.965 48.3143 22.995 48.2396 22.965C48.0157 22.86 48.165 22.56 48.3143 22.59C48.4635 22.62 48.2844 22.155 48.2844 22.155L48.4785 22.125C48.4785 22.125 48.5083 21.675 48.5829 21.675C48.6576 21.675 48.5531 21.525 48.4635 21.45C48.359 21.375 48.2396 21.12 48.1351 21.15C48.0307 21.18 47.6426 21.15 47.6426 21.15L47.5679 21.3L47.2993 21.345C47.2993 21.345 47.3291 21.54 47.2694 21.6C47.1202 21.78 46.553 22.155 46.7918 21.525L46.8664 21.375V21.15L46.4186 21.12C46.4186 21.12 46.1947 21.045 46.1947 20.94C46.1947 20.835 46.1649 20.715 46.1649 20.715L45.6424 20.13L45.0155 20.055L44.9708 19.935L44.5976 19.89C44.1498 19.665 43.7468 19.86 43.8214 20.25C43.8961 20.625 44.0155 20.775 43.7767 20.775C43.5229 20.775 43.4781 20.58 43.4781 20.58C43.4781 20.58 43.2841 20.505 43.2841 20.61C43.2841 20.715 43.2095 20.91 43.2841 21.015C43.3587 21.12 43.1796 21.27 43.105 21.195C43.0303 21.12 42.8363 20.895 42.8811 20.82C42.9259 20.745 42.5378 20.265 42.9259 20.19C43.3289 20.115 42.896 19.89 43.0453 19.83L43.2393 19.725H43.4333L43.5528 19.62L43.2244 19.575L43.0303 19.545L42.6572 19.515C42.284 19.77 42.2094 20.07 42.2094 20.07C42.0153 20.445 41.5377 19.92 41.7168 19.71C41.8959 19.5 41.1645 19.68 41.0451 19.785C40.9257 19.89 40.5526 19.83 40.5526 19.83C40.4779 20.055 40.1346 19.8 40.2242 19.65C40.3287 19.5 40.3287 19.395 40.3287 19.395L40.2093 19.365L40.06 19.65C39.7167 19.65 39.6122 19.845 39.6868 19.98C39.7615 20.1 39.5823 19.95 39.5376 20.13C39.4928 20.31 39.5674 20.31 39.7167 20.385C39.8659 20.46 39.6421 20.46 39.7465 20.58C39.851 20.7 40.1495 20.58 39.9704 20.76C39.7913 20.94 39.448 20.865 39.448 20.865C39.4182 21.09 38.9554 21.045 38.8957 20.97C38.851 20.895 38.4778 20.445 38.4778 20.445L38.0002 20.415C37.9554 20.055 38.2241 20.235 38.3285 19.965C38.433 19.68 38.4778 19.23 38.4778 19.23C38.4778 19.23 38.0748 19.2 38.0599 19.335C38.03 19.455 37.7912 19.545 37.7912 19.545C37.7912 19.545 37.5971 19.62 37.6718 19.725C37.7464 19.83 37.5225 19.875 37.5225 19.875C37.5225 19.875 37.5673 20.04 37.4927 20.1C37.2986 20.31 36.7911 20.13 36.7165 20.055L36.418 19.935L36.1194 19.74L35.7761 19.89L35.6716 19.995H35.2985L35.2686 20.295L35.9403 20.37L35.9851 21L35.7164 20.91H35.5373L35.4627 20.76L35.3134 20.73V21.285L35.4627 21.405L35.5821 21.525L35.8358 21.555L35.8806 21.855L36.5075 21.885L36.5822 22.005L36.9553 22.035L37.6718 22.77L37.627 22.995L37.5076 23.07C37.5524 23.25 37.1792 23.145 37.1792 23.145V23.295L37.3583 23.325L37.5374 23.43L37.7912 22.995C38.0599 22.815 38.1942 23.07 38.2091 23.22C38.239 23.37 38.0897 23.34 38.0897 23.34V23.7L38.239 23.745C38.4927 24.045 38.1345 24.225 38.1345 24.225L38.0599 24.48C37.9852 24.705 37.7166 24.66 37.7166 24.66L37.6121 24.81L37.3135 24.885L37.8957 24.96C37.9554 24.75 38.1046 24.705 38.1793 24.81C38.2539 24.915 38.2539 25.095 38.2539 25.095L38.4032 25.125L38.3733 25.41L38.5226 25.455V26.265L38.7017 26.46C39.0002 26.34 39.0002 26.535 38.851 26.64C38.7017 26.745 38.8062 27.195 38.8062 27.195L38.6868 27.315V27.525L38.5375 27.63V27.915C38.2838 27.795 37.9852 27.84 37.9106 27.915C37.6867 27.765 37.2091 27.81 37.2091 27.945C37.3583 28.14 37.0299 28.2 37.0299 28.2L36.8508 28.395C36.9702 28.65 36.7314 28.68 36.7314 28.68V29.16L36.4329 29.445L36.4627 30.105C36.4627 30.285 36.8359 30.3 36.9105 30.21C36.9852 30.105 37.2837 30.42 37.2837 30.42H37.5076L37.5524 29.97L37.4031 29.895V29.16L37.6568 28.875C37.9554 28.77 37.8509 29.535 37.8509 29.61C37.8807 29.895 38.0002 29.865 38.1196 29.805C38.3733 29.7 38.1643 30.09 37.9703 30.06C37.7763 30.03 37.8957 30.315 37.8957 30.315L38.0151 30.36L37.7912 30.54L37.5971 30.765L37.3434 30.69L37.0449 30.66L36.9404 30.48L36.7613 30.45L36.7314 30.81L36.612 30.96L36.3135 31.26C36.7165 31.26 36.2687 31.545 36.1642 31.545C36.3881 31.62 36.1344 31.845 35.5672 31.665V31.845L35.3731 31.875L35.5522 32.07L35.7463 32.1L35.6716 32.535C35.6716 32.865 34.8507 32.64 34.7761 32.565L34.7462 33.015L34.5969 33.045L34.6268 33.345L34.5969 33.78L34.8656 33.735V33.915L35.5373 33.945L36.5075 32.91L37.0747 32.79C37.1195 32.535 37.3732 32.835 37.3732 32.835C37.627 32.805 37.6718 32.985 37.6718 32.985L38.0002 33.03C38.2688 33.105 38.1046 33.135 38.1196 33.24C38.1494 33.39 38.2688 33.345 38.2688 33.345L38.3136 33.015L38.4629 33.045L38.3136 32.865L38.0449 32.745L37.7464 32.625C37.5524 32.34 37.7912 32.4 38.0002 32.43H38.3285C38.3285 32.43 38.7017 32.94 38.7017 33.06C38.7017 33.18 38.8808 33.21 38.8808 33.21L39.1047 33.18L39.1793 33.36H39.4032L39.4779 33.51H39.9257L39.9555 33.285L39.5376 33.21L39.5077 32.955L39.2092 32.88C39.1047 32.445 39.2838 32.325 39.4032 32.52L39.5525 32.55L39.5077 32.175L39.6868 32.13L39.6421 31.605L39.4928 31.56V31.38L40.1197 31.41C40.0749 31.08 40.1495 30.93 40.1495 30.93H40.3287L40.3585 31.05L41.1198 31.125L41.6571 30.51C41.6273 30.465 41.7168 30.435 41.6571 30.375C41.5825 30.3 41.478 30.375 41.3586 30.3C41.2392 30.225 41.3586 29.79 41.3287 29.7C41.2989 29.595 41.7467 29.445 41.672 29.67C41.5974 29.895 41.672 30 41.672 30C42.0004 29.7 42.2691 30.03 42.2392 30.105C42.2094 30.18 42.4184 30.255 42.5378 30.18C42.6572 30.105 42.8064 30.405 42.7617 30.555C42.7169 30.705 42.2691 30.675 42.2392 30.525C42.2094 30.375 42.1348 30.42 42.09 30.495C42.0452 30.57 41.8213 30.615 41.687 30.54C41.6571 30.525 41.6571 30.51 41.6422 30.495L41.1048 31.11H41.1347C41.4332 31.29 41.284 31.515 41.1795 31.56C41.075 31.605 40.9108 31.605 40.9108 31.605L40.866 31.71L40.2242 31.755L40.1794 32.01C39.851 31.965 39.7316 32.31 39.8062 32.49C39.8809 32.67 39.8062 32.82 39.8062 32.82L40.0749 32.94L40.4182 32.835C40.463 32.58 40.6869 32.535 40.8959 32.385C41.0899 32.235 41.4183 32.67 41.3138 32.865C41.2093 33.06 41.2093 33.15 41.2093 33.15L41.2392 33.375L40.9854 33.48L40.7914 33.585L40.7615 33.705H40.0898L39.9704 33.825L39.6421 33.855L39.5376 34.005L39.3137 34.035C39.3137 34.035 38.9405 34.215 39.0898 34.41C39.239 34.62 38.4629 34.59 38.2987 34.305C38.2539 34.56 37.9703 34.335 37.9703 34.335L37.7016 34.26L37.6718 33.885C37.627 33.63 37.1494 33.63 37.1792 33.81C37.2091 33.99 36.2836 33.885 36.2836 33.885L35.9851 34.035L35.7164 34.2L35.6866 34.32L35.2388 34.365L35.0447 34.47L34.9701 34.32H34.7761L34.582 34.605C34.0596 34.635 33.567 34.935 33.6118 35.055C33.6566 35.175 33.4178 35.31 33.4178 35.31L33.1939 35.385L33.0446 35.61L32.7461 35.715L32.7013 36.24L32.552 36.345V36.57L32.3729 36.615V36.735L32.1192 36.765L32.2684 37.14L32.4625 37.245C32.8058 37.29 32.6565 37.725 32.6565 37.725L32.8506 37.755L32.955 38.04L33.1491 38.445C33.2237 38.745 33.4476 38.67 33.5521 38.655C33.6566 38.625 33.7461 38.955 33.7461 38.955L34.7313 38.985C34.7313 38.985 34.6865 39.09 34.8507 39.135C35.0298 39.18 36.1642 39.24 36.209 39.165C36.1642 38.94 36.8359 38.88 37.1046 39.09C37.3732 39.285 37.7464 39.165 37.7464 39.165L38.1196 39.615L38.3733 40.17L38.7913 40.29L39.0898 40.365L39.1943 40.8L39.4182 40.83L39.4928 41.115C39.7615 41.31 39.4182 41.745 39.4182 41.745V42.3L39.6122 42.405L39.5823 42.615L39.9107 42.945L40.2839 42.975L41.2242 43.98L41.9706 44.205L42.09 44.61L42.284 44.58L42.4333 44.46L43.0303 44.43L43.3289 44.145L43.6572 44.1L46.4186 41.745L46.1649 41.595V41.04C46.6127 40.71 46.6425 40.125 46.2096 40.08C45.8962 40.035 46.0305 39.705 46.3291 39.645L46.5082 39.57V39.345L47.0754 38.82V38.415L45.8365 37.38C45.2842 37.185 45.8365 35.97 46.2096 35.985C46.5828 36.015 46.1798 34.11 46.1798 34.11L45.9858 34.005L46.0305 33.39H45.7619L45.3141 33.975L45.1947 34.38C45.1499 34.905 43.6125 34.815 43.5378 34.74C43.4632 34.665 42.9408 34.44 42.9408 34.44C42.9408 34.44 42.5378 34.11 42.4631 34.215C42.3885 34.32 42.0452 34.095 42.0452 34.17C42.0452 34.245 41.7168 33.99 41.7168 33.99L41.2242 33.81L41.5974 33.735L41.5228 33.435L42.1646 33.765C42.2392 33.87 42.5676 33.84 42.5676 33.84L42.6721 33.96C42.6721 33.96 42.8661 33.93 43.0005 34.08C43.1199 34.23 43.7767 34.11 43.7767 34.11L43.9558 34.26L44.2244 34.365L45.0006 34.395L45.0305 33.915L45.1797 33.765L45.1499 33.465L45.329 33.315V33.06L45.4783 33.015L45.5081 32.46L45.6275 32.43V31.215L45.2544 30.855C45.2245 30.975 44.8364 30.975 44.8364 30.975C44.8364 30.975 44.7319 31.155 44.6573 31.155C44.5827 31.155 44.7618 31.38 44.7021 31.53C44.6573 31.68 44.4483 31.68 44.4483 31.68L44.0752 31.785L43.9707 31.905H43.5677L43.5229 31.575L43.9707 31.455L44.2244 31.335L44.3439 31.08C44.3737 30.825 44.6722 30.855 44.6722 30.855C44.6722 30.855 45.2394 30.375 45.2693 30.15C45.2991 29.925 45.4932 29.295 45.8365 29.295H46.4783C46.7321 29.19 46.6574 28.86 46.6574 28.86L46.9858 28.815L47.0306 28.995C47.0306 28.995 47.4784 29.04 47.5232 28.965C47.5679 28.89 47.6724 28.71 47.7918 28.785C47.9113 28.86 48.3143 28.605 48.3143 28.605C48.3441 28.425 48.9561 28.5 48.9561 28.5L49.0307 28.275C49.0307 28.275 48.6128 27.69 48.5382 27.69C48.4635 27.69 48.0605 27.33 48.0157 27.465C47.6127 27.36 47.6426 26.805 47.6426 26.805L47.4933 26.445C47.4933 26.235 47.1202 25.815 47.0455 25.86C46.6724 25.575 46.941 25.26 47.0455 25.23C47.15 25.2 47.3888 24.855 47.3888 24.855L47.5082 24.495L47.9262 24.375L47.971 24.045L47.7471 24.015C47.7471 24.015 48.0008 23.565 48.1202 23.565C48.2396 23.565 49.0606 23.565 49.1352 23.52C49.2098 23.475 49.3591 23.07 49.3591 22.995C49.3591 22.92 49.5532 22.89 49.6278 22.875C49.7024 22.845 49.8815 22.65 49.9263 22.545C50.0606 22.29 49.8965 21.66 49.792 21.765ZM56.673 29.85C56.6581 29.805 56.6432 29.76 56.5984 29.745C56.4939 29.7 56.2999 29.775 56.2103 29.835L56.2999 29.955C56.3894 29.895 56.5238 29.865 56.5387 29.88V29.865L56.673 29.85ZM57.3149 32.865L57.1656 32.85C57.1507 32.97 57.1805 33.12 57.2999 33.135L57.3298 32.985C57.3298 32.985 57.3149 32.925 57.3149 32.865ZM57.8671 32.265C57.9119 32.415 57.9567 32.565 57.9567 32.58L58.091 32.52C58.091 32.52 58.0313 32.37 58.0015 32.22L57.8671 32.265ZM58.1955 32.145V32.115C58.1955 32.07 58.1806 32.01 58.1507 31.95L58.0164 32.025C58.0313 32.055 58.0313 32.1 58.0462 32.13C58.0462 32.175 58.0612 32.22 58.091 32.25C58.1209 32.265 58.1507 32.28 58.1955 32.265L58.1657 32.115C58.1657 32.13 58.1806 32.13 58.1955 32.145ZM56.9268 33.225C57.0313 33.165 57.1656 33.03 57.1507 33.315C57.1357 33.6 57.0163 33.51 56.9268 33.6C56.8372 33.69 56.7775 33.315 56.9268 33.225ZM50.9413 35.175L50.9562 34.95L51.195 34.98L51.1801 35.19L50.9413 35.175ZM50.9562 35.67C50.9264 35.535 50.7771 35.49 50.7622 35.49L50.7174 35.64C50.7323 35.64 50.7473 35.655 50.7622 35.67L50.792 35.805C50.7771 35.82 50.7622 35.835 50.7622 35.85L50.8667 35.955C50.9413 35.835 50.9712 35.76 50.9562 35.67ZM32.4028 40.35L32.2535 40.485L32.1789 40.545L32.2535 40.605L32.4326 40.725L32.5222 40.605L32.4177 40.53L32.4923 40.47L32.4028 40.35ZM34.1641 42.165L34.1044 42.3L34.2536 42.375L34.2089 42.435L34.3133 42.54L34.5074 42.345L34.4178 42.285L34.1641 42.165ZM27.3129 9.61504L27.4622 9.76504L27.3577 9.87004L27.2084 9.72004L27.3129 9.61504ZM31.8206 14.34L31.9699 14.46L31.8804 14.58L31.7311 14.46L31.8206 14.34ZM31.2534 14.445L31.2833 14.73H31.6565C31.8057 14.73 31.537 14.55 31.537 14.55C31.537 14.55 31.2385 14.58 31.2534 14.445ZM39.4331 7.39504L39.1793 7.36504L39.1644 7.51504L39.3734 7.53004L39.5376 7.78504L39.657 7.69504L39.4928 7.42504L39.4629 7.39504H39.4331ZM40.1048 2.08504L40.0301 2.22004L40.2242 2.34004L40.269 2.37004L40.2988 2.34004L40.5824 2.16004L40.4929 2.04004L40.269 2.19004L40.1048 2.08504ZM41.4332 2.80504L41.3138 2.67004L41.2093 2.79004L41.4332 3.01504L41.478 2.97004L41.7317 2.76004L41.6273 2.64004L41.4332 2.80504ZM33.1939 8.07004C33.1789 7.98004 33.6864 7.96504 33.7611 8.04004C33.8357 8.11504 33.7909 8.25004 34.0148 8.25004C34.2387 8.25004 34.1342 8.40004 34.1193 8.47504C34.0895 8.55004 33.8506 8.52004 33.8208 8.44504C33.7909 8.37004 33.4178 8.34004 33.4178 8.34004C33.4178 8.34004 33.2237 8.19004 33.1939 8.07004ZM36.0448 7.78504C36.4329 7.90504 36.5672 7.81504 36.5971 7.71004C36.6269 7.60504 36.6419 7.59004 36.7911 7.56004C36.9404 7.53004 36.7613 7.23004 36.612 7.26004C36.4627 7.29004 36.3135 7.21504 36.2836 7.08004C36.2538 6.96004 36.0149 6.63004 35.9851 6.88504C35.9552 7.14004 35.806 7.14004 35.8358 7.32004C35.8806 7.48504 35.9552 7.75504 36.0448 7.78504ZM38.5077 3.51004C38.4479 3.28504 38.1345 3.79504 38.4629 3.88504C38.7913 3.99004 39.1047 3.88504 39.1047 3.88504L39.1793 3.73504L40.4182 3.76504C40.5227 3.66004 40.5675 3.51004 40.5675 3.51004C40.5675 3.51004 40.866 3.40504 40.9854 3.46504C41.1048 3.51004 41.0153 3.10504 40.8809 3.16504C40.7615 3.21004 40.5078 3.19504 40.5078 3.19504H40.06C40.0301 3.01504 39.6421 3.09004 39.6122 3.19504C39.5973 3.28504 39.448 3.31504 39.448 3.31504L38.8808 3.36004C38.8211 3.51004 38.5375 3.61504 38.5077 3.51004ZM38.5524 4.75504L38.2241 4.42504V4.14004L38.1196 4.03504L38.0151 3.67504L37.6867 3.57004L37.3583 3.69004L37.015 3.91504L36.6419 3.96004L36.4478 4.18504L37.2389 4.26004L37.3882 4.51504L37.9554 4.56004L38.3285 4.93504C38.6718 5.08504 38.7465 4.93504 38.5524 4.75504ZM39.7018 7.18504L39.8062 6.94504L39.9406 7.02004L39.8361 7.24504L39.7018 7.18504ZM47.1202 6.93004C47.0754 6.73504 47.6127 6.55504 47.7471 6.70504C47.8665 6.85504 48.2247 6.88504 48.2695 7.63504C48.2844 7.90504 47.8217 7.35004 47.8217 7.35004L47.4485 7.23004C47.2396 7.18504 47.1351 7.06504 47.1202 6.93004ZM44.508 7.59004C44.4334 7.81504 44.4036 8.11504 44.2841 8.11504C44.1647 8.11504 44.2095 8.44504 44.2095 8.44504C44.2095 8.44504 44.5379 8.44504 44.6275 8.47504C44.7319 8.50504 44.7319 8.76004 44.7319 8.76004C45.1051 8.73004 45.2544 9.24004 45.2096 9.37504C45.1648 9.49504 45.3588 9.49504 45.3588 9.49504C45.3588 9.49504 45.3588 9.90004 45.3141 10.005C45.2693 10.11 45.6424 10.185 45.732 10.335C45.8365 10.485 45.6872 10.995 45.6126 11.025C45.538 11.055 45.8066 11.13 45.7917 11.25C45.7619 11.37 45.8663 11.25 45.8962 11.46C45.926 11.655 45.9708 12.09 45.9708 12.09L46.3141 12.12C46.3589 11.79 47.0007 11.775 47.1052 11.82C47.5232 11.97 47.8515 12.63 47.8515 12.78C47.8515 12.93 47.5829 12.96 47.5829 12.96L47.6277 13.695C48.0456 13.815 48.4038 14.43 48.3441 14.535C48.2993 14.64 48.6426 14.61 48.6426 14.61C48.6874 14.16 49.1203 14.31 49.1352 14.46C49.1651 14.61 49.2397 14.94 49.2397 14.94L49.3591 15.165L49.5382 15.345L49.8069 15.315L49.8815 15.465L50.2099 15.51C50.2099 15.51 50.4786 15.81 50.5084 15.885C50.5383 15.96 50.9114 15.93 51.001 15.96C51.1055 15.99 51.2548 16.065 51.2697 16.185C51.2995 16.305 51.4488 16.515 51.4488 16.515C51.4488 16.515 51.7473 16.59 51.7772 16.695C51.807 16.8 51.9264 17.025 51.9264 17.025L52.1802 17.235L52.21 17.46L52.4787 17.49L52.5533 17.79L53.0011 17.76L53.2549 17.58C53.5833 17.4 53.8072 17.175 53.8221 17.07C53.8519 16.965 53.8967 16.59 54.1505 16.665C54.4042 16.74 54.2251 16.11 54.2251 16.11C54.2251 16.11 53.8818 15.855 53.8967 15.735C53.9266 15.615 53.5534 15.36 53.5683 15.255C53.5982 15.15 53.24 14.955 53.2698 14.85C53.2997 14.745 53.0907 14.475 53.0907 14.475L52.7175 14.115L52.6728 13.89L52.3742 13.86L51.7772 13.125L51.807 12.915L51.6279 12.885V12.6L51.4488 12.495L51.1801 12.465L50.6278 11.865L50.5831 11.58H50.3144L50.3592 11.055C50.5383 10.83 50.4338 10.395 50.4338 10.395C50.4338 10.395 50.0905 10.575 49.9114 10.5C49.7323 10.425 49.986 10.245 49.986 10.245V10.05L49.8368 9.90004C49.8368 9.90004 49.4188 9.94504 49.389 9.87004C49.3591 9.79504 49.2845 9.46504 49.2845 9.46504L49.2546 9.03004L49.0755 8.95504L49.0457 8.80504L48.777 8.83504V8.53504L48.6277 8.49004L48.4785 8.41504L48.4486 8.11504L47.8963 8.08504L47.7172 7.83004L47.5232 7.53004L46.8963 7.48504L46.747 7.33504L46.4932 7.29004L46.3141 7.21504L46.2395 7.33504L45.7619 7.36504L45.732 7.51504C45.523 7.62004 44.5379 7.51504 44.508 7.59004ZM39.9406 7.44004C39.9854 7.51504 40.2839 7.59004 40.2839 7.59004C40.4779 7.59004 40.6123 7.74004 40.6123 7.81504C40.6123 7.89004 40.8809 7.86004 40.8809 7.86004L40.9108 7.68004L40.7168 7.42504L40.5376 7.30504C40.5376 7.30504 40.269 7.27504 40.269 7.20004C40.269 7.14004 39.9854 7.36504 39.9406 7.44004ZM39.9406 8.29504L39.7465 8.25004V8.47504L40.0152 8.50504L39.9406 8.29504ZM42.702 11.085V10.89C42.702 10.89 42.6721 10.695 42.5527 10.695C42.4333 10.695 42.2094 10.545 42.2542 10.44C42.2989 10.335 41.8362 10.23 41.8362 10.23C41.8362 10.23 41.4183 9.82504 41.5676 9.87004C41.7168 9.91504 41.6422 9.69004 41.6422 9.69004C41.6422 9.69004 41.3437 9.73504 41.269 9.72004C41.1944 9.69004 41.2242 9.46504 41.2242 9.46504C41.2242 9.46504 40.9257 9.39004 40.9257 9.46504C40.9257 9.54004 41.0302 9.54004 41.075 9.69004C41.1198 9.84004 41.1048 10.095 41.3287 10.14C41.5526 10.185 41.5974 10.245 41.6273 10.35C41.6571 10.455 41.9258 10.47 41.9258 10.47L42.1198 10.575L42.702 11.085ZM42.896 11.76C42.8661 11.655 42.8214 11.31 42.9706 11.325C43.1199 11.355 43.0154 11.325 43.1945 11.4C43.3736 11.475 43.3886 11.28 43.3886 11.28H43.6572L44.0005 11.565L43.9558 11.79L43.702 11.82C43.5826 11.625 43.3289 11.7 43.3736 11.865C43.4184 12.045 43.2542 12.375 43.1497 12.39C43.0453 12.42 42.7318 12.42 42.7467 12.27C42.7915 12.12 42.896 11.76 42.896 11.76ZM46.9858 15.21L47.1649 14.655C46.9112 14.61 46.9709 14.325 46.9709 14.325C46.941 14.1 46.5977 13.845 46.4783 13.92C46.3589 13.995 46.4037 13.395 46.4037 13.395C46.4037 13.395 46.6276 13.245 46.7321 13.32C46.8366 13.395 45.8813 12.06 45.6872 12.18C45.4932 12.3 45.0454 12.06 45.0603 11.82C45.0902 11.595 44.1647 10.83 44.1647 10.83C44.1647 10.83 43.8662 10.635 43.8214 10.785C43.7767 10.935 43.6722 11.04 43.8214 11.115C43.9707 11.19 43.9408 10.995 44.12 11.16C44.2991 11.34 44.6125 11.565 44.4931 11.715C44.3737 11.865 44.2244 11.925 44.2244 11.925L44.4036 12.135H44.6722L44.717 12.57C44.717 12.57 45.0155 12.72 45.0902 12.9C45.1648 13.08 45.1648 13.185 45.0902 13.275C45.0155 13.38 44.8663 13.56 44.8961 13.725C44.926 13.905 45.12 13.98 45.12 13.98L45.3141 14.01L45.4633 14.085V14.415C45.6574 14.37 45.9858 14.64 45.9559 14.82C45.926 15 46.0007 14.895 46.2544 15.075C46.5082 15.255 46.4335 15.285 46.5977 15.405C46.7619 15.51 46.9112 15.435 46.9858 15.21ZM41.284 18.45C41.284 18.525 41.2392 18.63 41.3884 18.66C41.5377 18.69 41.8064 18.555 41.8362 18.705C41.8661 18.855 41.8661 18.96 42.0601 19.035C42.2542 19.11 42.3885 19.14 42.5378 19.14C42.687 19.14 43.0154 19.095 43.0154 19.095C43.0154 19.095 43.3736 19.155 43.4333 19.215C43.702 19.5 43.8811 19.575 43.9558 19.44C44.0304 19.32 43.9259 19.035 43.911 18.93C43.8811 18.825 43.5378 18.345 43.4184 18.45C43.299 18.555 43.2692 18.45 43.0453 18.525C42.8214 18.6 42.3437 18.555 42.3288 18.45C42.2989 18.345 41.9556 18.3 41.9556 18.195C41.9556 18.09 41.7019 17.97 41.7317 18.12C41.7616 18.27 41.5526 18.345 41.5078 18.3C41.4332 18.24 41.284 18.45 41.284 18.45ZM40.0451 18.72L40.0152 18.9L40.2839 18.93C40.2839 18.93 40.4033 19.035 40.4033 19.11C40.4033 19.185 40.5824 19.26 40.672 19.26C40.7765 19.26 41.0451 19.05 41.0451 19.05C41.0451 19.05 41.1645 18.69 41.075 18.72C40.9705 18.75 40.7765 18.9 40.7466 18.75C40.7168 18.6 40.4182 18.675 40.4182 18.675L40.0451 18.72ZM38.7614 19.005L38.836 18.99L38.8808 19.125L38.8062 19.155L38.7614 19.005ZM38.851 18.765L39.0002 18.735L39.045 18.96L38.9107 18.99L38.851 18.765ZM39.2689 18.795L39.2838 18.945L39.8212 18.93V18.78L39.2689 18.795ZM44.105 18.675L44.3588 18.645L44.3737 18.795L44.12 18.825L44.105 18.675ZM44.7618 19.23L44.8364 19.05L44.9708 19.11L44.8961 19.29L44.7618 19.23ZM46.9261 16.695L47.1799 16.68L47.1948 16.83L46.941 16.845L46.9261 16.695ZM47.3441 16.845H47.4933V16.965H47.3441V16.845ZM47.7918 14.715L47.6426 14.73L47.6127 14.505L47.762 14.49L47.7918 14.715ZM47.6426 17.865H47.7918V18.045H47.6426V17.865ZM47.971 17.955L48.1053 18.015L48.0307 18.18L47.8963 18.105L47.971 17.955ZM47.2396 15.96C47.3888 15.96 47.1948 16.545 47.5829 16.485C47.9859 16.44 47.6127 16.665 47.9113 16.68C48.2098 16.71 48.1351 16.455 48.2396 16.275C48.3441 16.095 48.2844 15.99 48.1202 15.945C47.9411 15.9 47.9411 15.9 47.8963 15.69C47.8515 15.495 47.6426 15.435 47.6426 15.435L47.5679 15.135L47.2396 15.33L46.9112 15.765C46.9112 16.125 47.0903 15.96 47.2396 15.96ZM48.2098 17.34C48.4038 17.235 48.8367 17.235 48.8068 17.085C48.777 16.935 49.0606 16.89 49.0606 16.89L49.1352 17.19L49.3591 17.34L49.389 17.625C49.389 17.625 49.4636 17.58 49.1949 17.655C48.9262 17.73 49.0904 17.85 49.0904 17.85L48.4934 17.88L48.4187 17.625L48.2098 17.34ZM45.0006 19.455C45.12 19.425 45.4186 19.41 45.4783 19.485C45.523 19.56 45.2991 19.665 45.2991 19.665L45.0006 19.71C44.9111 19.59 44.8812 19.485 45.0006 19.455ZM46.5977 19.23C46.7321 19.365 45.8514 19.335 45.8514 19.23C45.8514 19.125 45.926 18.78 46.1499 18.855C46.3738 18.93 46.4037 18.405 46.4037 18.405C46.4037 18.405 46.2096 18.435 46.3738 18.33C46.553 18.225 46.3738 18.075 46.2992 18C46.2246 17.925 46.1499 17.79 46.1499 17.79H46.4932C46.6425 17.685 46.6873 17.205 46.6873 17.205C46.9858 17.31 47.1351 17.1 47.1351 17.1C47.1351 17.1 47.1799 17.25 47.2843 17.385C47.3888 17.505 47.0306 17.565 47.1649 17.64C47.2843 17.715 47.3441 17.94 47.2843 18.015C47.2396 18.09 46.956 18.045 46.956 17.94C46.956 17.835 46.8515 18.06 46.956 18.195C47.0605 18.315 46.8366 18.495 46.7768 18.495C46.7321 18.495 46.4037 18.54 46.6724 18.705C46.941 18.855 47.2396 18.78 47.2396 18.78C47.2396 18.78 47.4635 18.75 47.5381 18.885C47.6127 19.005 47.5082 19.035 47.3888 19.035C47.2694 19.035 46.6724 18.99 46.6724 18.99C46.6724 18.99 46.5231 19.155 46.5977 19.23ZM49.4934 16.365C49.4188 16.26 49.3442 16.185 49.2397 16.14C49.1352 16.095 49.0606 16.035 48.971 16.035C48.8665 16.035 48.777 15.93 48.8218 15.81C48.8665 15.69 48.7471 15.63 48.7471 15.525C48.7471 15.42 48.8218 15.42 48.9412 15.495C49.0606 15.57 49.0457 15.6 49.1352 15.72C49.2397 15.84 49.2845 15.975 49.389 15.945C49.4934 15.915 49.5681 16.17 49.6576 16.095C49.7621 16.02 49.7323 16.275 49.7323 16.275L49.4934 16.365ZM49.2546 16.605C49.3293 16.71 49.4785 16.785 49.4785 16.89C49.4785 16.995 49.4337 17.07 49.583 17.085C49.7323 17.115 49.8368 17.055 49.8815 17.19C49.9263 17.31 49.9263 17.52 49.9114 17.625C49.8815 17.73 49.9412 17.88 50.0606 17.88C50.1801 17.88 50.2099 17.91 50.2099 17.985C50.2099 18.06 50.3592 17.7 50.3592 17.7C50.2398 17.595 50.1353 17.37 50.1353 17.37C50.1353 17.37 50.0159 17.01 50.0159 16.965C50.0159 16.92 49.8368 16.86 49.7621 16.845C49.6875 16.815 49.5681 16.59 49.5681 16.59L49.2546 16.605ZM50.8667 20.7L50.7622 20.475C50.7622 20.475 50.7622 20.28 50.807 20.175C50.8517 20.07 50.7025 19.98 50.6278 19.95C50.5532 19.92 50.5831 19.725 50.5532 19.62C50.5234 19.515 50.3592 19.44 50.3592 19.44C50.3592 19.44 50.3144 19.065 50.3144 18.99C50.3144 18.915 50.0905 18.81 50.1651 18.735C50.2398 18.66 50.2845 18.555 50.3592 18.51C50.4338 18.465 50.2845 18.105 50.404 18.18C50.5234 18.255 50.5234 18.39 50.5831 18.48C50.6278 18.585 50.5532 18.93 50.6876 19.005C50.807 19.08 50.6577 19.335 50.8667 19.335C51.0607 19.335 50.9413 19.815 50.9413 19.815C50.9413 19.815 50.8965 20.175 51.0159 20.19C51.1353 20.22 51.0607 20.82 51.0607 20.82L50.8667 20.7ZM50.9413 22.635L51.0159 22.485L51.1503 22.56L51.0756 22.71L50.9413 22.635ZM51.1055 21.81L51.2548 21.825L51.2398 22.035L51.0906 22.005L51.1055 21.81ZM50.792 20.97L50.598 20.94L50.1502 21.015L49.8965 21.495C49.8965 21.495 50.0159 21.57 50.1204 21.75C50.2248 21.93 50.2696 22.965 49.9711 23.145C49.6726 23.325 50.0009 23.22 50.0009 23.22L49.9562 23.775C50.0308 24.03 50.1502 23.895 50.2248 23.775C50.2995 23.655 50.3741 23.625 50.4786 23.49C50.5831 23.37 50.7323 23.13 50.7473 22.965C50.7771 22.785 50.8965 22.515 50.8219 22.44C50.7473 22.365 50.8965 22.005 50.8965 22.005C50.8965 22.005 51.001 21.795 50.8965 21.6C50.792 21.39 50.9264 21.165 51.001 21.075L50.792 20.97ZM49.7024 18.39H49.3293C49.3293 18.39 49.4487 18.435 49.1054 18.105C48.7621 17.775 48.5382 18.18 48.5382 18.18L48.1351 18.225V18.63L47.9411 18.705L47.971 18.96L48.2396 18.93C48.2396 18.93 48.2396 19.23 48.3143 19.11C48.3889 18.99 49.0158 19.14 48.9561 19.44C48.9412 19.56 49.583 19.89 49.5084 20.295C49.8368 20.34 49.7621 20.67 49.7621 20.67L50.1801 20.715L50.2995 20.46L50.4189 20.49V20.34L50.1502 20.265L50.1054 19.455L49.9263 19.335L49.9711 19.125L49.777 19.05L49.8815 18.72L49.7024 18.39ZM48.777 24.6L48.9262 24.54L48.8665 24.42L48.8367 24.33L48.7621 24.375L48.5829 24.48L48.4187 24.375L48.3441 24.51L48.5382 24.63L48.5829 24.66L48.6128 24.63L48.7621 24.555L48.777 24.6ZM49.4337 24.27L49.7024 24.315L49.7323 24.165L49.4636 24.12L49.4337 24.27ZM48.9262 27.51C48.8218 27.36 49.4188 27.105 49.5233 27.405C49.6278 27.705 49.5233 27.66 49.4188 27.63C49.3293 27.6 49.0755 27.705 48.9262 27.51ZM46.3589 32.385H46.538V32.865H46.3589V32.385ZM47.5082 37.02C47.4635 37.215 47.2843 37.32 47.1799 37.245C47.0754 37.17 47.2993 37.365 47.359 37.47C47.4038 37.575 47.553 37.575 47.6127 37.47C47.6575 37.365 47.6426 37.14 47.6874 37.035C47.7321 36.945 47.5381 36.915 47.5082 37.02ZM48.0605 38.04L48.2844 38.145L48.3143 38.58C48.6128 38.88 49.583 38.625 49.583 38.55C49.583 38.475 49.5382 37.62 49.5382 37.62L49.4188 37.5L49.389 36.87C49.4934 36.54 48.9113 36.06 48.8665 36.165C48.8218 36.27 48.4934 36.195 48.4934 36.285C48.4934 36.39 48.2993 36.885 48.3889 37.065C48.4934 37.245 48.3143 37.245 48.2844 37.425C48.2546 37.575 48.0008 37.875 48.0605 38.04ZM41.075 32.625L41.0004 32.505L40.7914 32.625L40.8809 32.76L41.075 32.625ZM37.2837 33.12C37.1643 33.24 37.1941 33.345 37.2837 33.435V33.12ZM38.0599 33.735L38.2241 33.45L38.0897 33.405L37.9106 33.525L37.9852 33.6L38.0599 33.735ZM37.9106 25.83C38.0151 26.055 37.9852 26.385 38.3584 26.64C38.4778 26.73 38.2838 26.895 38.1643 26.82C38.0449 26.745 37.6867 26.19 37.6867 26.19V25.86C37.7613 25.665 37.8658 25.74 37.9106 25.83ZM36.5971 27.15C36.6568 27.375 36.6419 26.79 36.7463 26.82C36.8508 26.85 36.7762 26.46 36.7762 26.46L36.3284 26.79C36.5374 26.82 36.5672 27.045 36.5971 27.15ZM35.2537 28.77C35.2239 29.07 34.8507 29.175 34.8507 29.175L34.582 29.1L34.4328 28.98L34.4029 28.62L34.6268 28.59L34.6716 28.74L35.2537 28.77ZM34.8507 25.71V25.35L34.8059 25.02L34.4328 24.84L34.1641 25.095L34.1193 25.455V25.68L33.8656 25.725L33.8208 26.415L33.6267 26.49L33.6566 26.745L33.1192 26.895L33.0745 27.225L32.8804 27.345L32.7759 27.645L32.6565 28.38C32.6565 28.38 32.8804 28.815 32.9998 28.605C33.1192 28.41 33.3282 28.38 33.3282 28.38L33.4028 28.2L34.0745 28.23C34.1193 27.945 34.4477 28.05 34.4477 28.185C34.4477 28.305 34.7014 28.215 34.7014 28.215L34.8805 27.93H35.1492L35.1791 27.63L35.2985 27.555V27.105C35.7015 26.985 35.6418 26.595 35.6418 26.595L35.7463 26.475L35.7015 26.295C35.5075 26.22 35.597 26.04 35.7313 26.085C35.8508 26.13 35.5522 25.86 35.5522 25.86C35.403 25.98 35.2836 25.71 35.2836 25.71H34.8507ZM33.7163 24.675L33.5222 24.72L33.0745 25.155L33.0446 25.35L32.9252 25.53L32.7759 25.905L32.2535 25.935L32.149 26.385L32.2237 26.775L32.6714 26.955L32.7162 26.7L32.8655 26.625L32.8953 26.37L32.9998 26.19L33.1491 26.01L33.1939 25.815L33.4476 25.665L33.7461 25.605L33.8656 25.455L33.9103 25.155L33.9402 24.93L34.0447 24.765L34.3432 24.645V24.165H34.1939L34.1641 23.985L33.8954 23.955L33.8357 24.09H33.7163L33.6864 24.285H33.8357L33.8656 24.45L33.7611 24.54L33.7163 24.675ZM25.8352 27.72C25.8352 27.78 25.7904 27.825 25.7307 27.825C25.671 27.825 25.6262 27.78 25.6262 27.72C25.6262 27.66 25.671 27.615 25.7307 27.615C25.7904 27.615 25.8352 27.66 25.8352 27.72ZM25.8203 30.615C25.8203 30.675 25.7755 30.72 25.7158 30.72C25.6561 30.72 25.6113 30.675 25.6113 30.615C25.6113 30.555 25.6561 30.51 25.7158 30.51C25.7755 30.51 25.8203 30.555 25.8203 30.615ZM25.5516 30.195C25.6113 30.195 25.6561 30.15 25.6561 30.09C25.6561 30.03 25.6113 29.985 25.5516 29.985C25.4919 29.985 25.4471 30.03 25.4471 30.09C25.4471 30.15 25.4919 30.195 25.5516 30.195ZM25.2531 30.795L25.0441 30.825V31.005L25.2531 30.975V30.795ZM25.4769 29.505L25.2978 29.535L25.2829 29.73L25.4769 29.76V29.505ZM25.4322 28.14L25.4471 27.96L25.0739 28.215L24.8351 28.065V28.665L25.2232 29.205L25.3725 28.845L25.4322 28.62L25.2531 28.545L25.2829 28.17L25.4322 28.14ZM25.2829 26.01L24.8351 25.965L24.865 26.145H24.9844C25.1784 26.505 25.0142 27.36 25.0142 27.36C25.0142 27.36 24.7157 27.39 24.6709 27.24C24.6261 27.09 24.4918 27.57 24.5963 27.645C24.7008 27.72 25.0441 27.645 25.0739 27.93C25.1038 28.215 25.2978 27.75 25.2978 27.75L25.2829 26.01ZM35.2836 21H35.0149L34.9701 20.445L35.1194 20.34V20.055H34.2536L34.2238 19.77L34.3432 19.695L34.1492 19.62L33.9999 19.815L33.9551 20.04L33.7014 20.085V20.205H33.5222V20.535L32.8207 21.12L31.4326 21.075C31.3281 21.3 31.0893 21.045 31.0893 21.045C31.0445 20.895 30.6862 21.045 30.6862 21.045C30.6862 21.33 30.2086 20.925 30.2086 20.925L29.3429 20.295C28.8503 19.845 28.104 20.415 28.0741 20.55C28.104 20.91 27.5069 20.625 27.5069 20.625C27.5069 20.625 27.0144 20.475 26.9397 20.67C26.8651 20.865 26.5367 20.82 26.5367 20.82L26.4919 20.925L26.2382 20.97L26.1934 21.12L25.8949 21.165L26.6412 21.135C26.8352 21.105 26.5666 21.57 26.4472 21.54L26.1039 21.57L25.9844 21.69H25.6561L25.5068 21.9L25.0292 21.87C25.0292 21.87 24.7605 22.095 24.7754 22.17C24.8053 22.245 24.7306 22.47 24.656 22.47C24.5814 22.47 24.4321 22.695 24.4769 22.77C24.5217 22.845 24.3276 23.1 24.3276 23.1L24.2828 23.355L24.1336 23.4V24.09L23.835 24.3V24.6L23.3873 25.08L23.432 25.485L23.0589 25.89L23.1037 26.295L22.8798 26.37L22.835 26.55L22.7305 27.075L22.9842 27.105C23.1037 27.06 23.0887 27.435 22.9842 27.48C22.8798 27.525 22.6111 27.63 22.7604 27.735C22.9096 27.84 22.3573 27.81 22.3573 27.66C22.3573 27.51 22.0588 27.375 21.9842 27.435C21.9095 27.48 21.7901 27.21 21.7901 27.21C21.5215 26.925 20.6707 27.24 20.6707 27.24L20.5513 27.645C20.2826 27.69 20.1035 28.155 20.1035 28.155C19.8796 28.23 19.7004 28.515 19.7751 28.59C19.8497 28.665 19.6557 28.695 19.6557 28.695V29.25L19.5363 29.43L19.5661 30.03C19.7154 30.03 19.6855 30.315 19.6855 30.315C19.4318 30.345 19.4915 30.675 19.4915 30.675L18.9691 30.855L18.8646 31.005L18.2227 30.975L18.0436 31.155L17.8645 30.975H16.6256L16.5808 30.855L16.3271 30.81L16.2972 30.525L15.9241 30.555L15.8495 30.705L15.4464 30.735C15.4763 30.99 15.0434 31.365 14.9986 31.26C14.9539 31.155 14.6703 30.885 14.8046 30.825C14.924 30.78 15.2524 30.72 15.2524 30.72V30.54L14.327 30.51L14.2225 30.66L13.8493 30.69V31.095L13.6702 31.14C13.5508 31.215 13.7001 31.5 13.7001 31.5C13.8792 31.68 13.6702 31.95 13.6702 31.95C13.5209 32.1 13.7896 32.385 13.7896 32.385C13.9837 32.43 13.6702 32.58 13.6702 32.58C13.715 32.835 13.8642 32.91 13.8642 32.91C13.715 33.165 13.9687 33.285 13.9687 33.285L13.9986 33.72L14.1777 33.825V34.11L14.2822 34.29H14.6852L14.6553 33.66C14.312 33.255 14.9539 33.15 14.9837 33.3C15.0136 33.45 15.2822 33.525 15.2822 33.525C15.327 33.9 15.7599 34.125 15.8793 33.75C15.9987 33.375 16.1032 33.6 16.1778 33.78C16.2525 33.96 16.7301 34.395 16.7301 34.395H17.1033L17.148 34.755C17.566 34.725 17.7003 34.785 17.8645 35.355C18.0436 35.94 18.5063 36.09 18.5063 36.09L18.8496 36.06C18.8496 35.76 19.193 36.105 19.193 36.27C19.193 36.42 19.8646 37.005 19.8646 37.005L20.5363 37.155L21.1632 37.665L21.6409 37.62H21.8349C21.9543 37.185 22.5514 37.65 22.6111 37.8C22.6559 37.95 23.0589 38.205 23.1037 38.085C23.1484 37.965 23.432 38.04 23.4768 38.415C23.5216 38.79 23.7007 38.715 23.7007 38.715L25.1187 38.685L25.6113 38.25L26.88 38.22C27.5219 38.19 27.1338 37.305 26.9994 37.305C26.7755 37.125 27.0741 36.39 27.0741 36.39L25.268 34.695C24.85 34.695 25.2232 34.08 25.2232 34.08C25.5516 33.87 25.1486 33.555 25.1486 33.555C25.1933 33.255 24.9695 32.895 24.9695 32.895C24.5217 32.595 24.6411 32.01 24.6411 32.01V31.605C24.2679 31.245 24.7903 31.2 24.7903 31.2C24.9695 30.9 24.6709 30.675 24.6709 30.675L24.6411 30.345L24.2381 30.3L24.1933 29.115L23.2977 27.825C23.1186 27.78 23.2529 27.465 23.2529 27.465C23.4768 27.345 23.2081 27.03 23.2081 27.03L23.1783 26.475L23.7007 26.43L23.8201 26.235H24.0739L24.044 25.575C24.1634 25.245 24.462 25.425 24.462 25.425L24.8053 25.455L24.9993 25.08L25.0441 24.78L24.7754 24.75C24.4769 24.57 24.6261 23.91 24.6261 23.91C25.1038 23.205 25.6411 23.61 25.6411 23.61L25.9844 23.58C26.5069 23.94 26.0292 24.585 26.0292 24.585C25.9247 24.735 25.9844 25.215 25.9844 25.215L26.1039 26.025L25.7755 26.31C25.5068 26.46 25.5068 26.82 25.8053 26.895C25.9994 26.925 25.9247 27.405 25.6262 27.075C25.1784 27.075 25.88 27.48 25.671 27.375C26.1188 27.6 26.0143 27.18 26.0143 27.18L26.6114 26.7C26.8352 26.52 27.2383 27.075 27.2383 27.15C27.2383 27.225 28.2234 27.18 28.2234 27.18C28.4921 27.36 28.5966 27.81 28.5966 27.81C28.8652 27.45 29.4474 27.78 29.0145 27.99C29.4175 28.245 29.4175 28.47 29.4175 28.47C29.7459 28.365 29.7459 28.62 29.7459 28.695C29.7459 28.77 29.8504 28.32 29.8504 28.32C29.4772 28.035 30.3429 27.945 30.1041 28.44L29.9549 28.665L30.2086 28.86L30.2385 29.445C30.7907 29.4 30.6415 28.71 30.6415 28.71L30.8952 28.665C30.8952 28.44 31.0743 28.56 31.0743 28.56C30.8952 27.705 31.4773 27.555 31.4773 27.555C31.8057 27.48 31.8206 26.79 31.8206 26.79C31.5968 26.685 31.7162 26.34 31.9699 26.64C32.2237 26.94 31.8206 26.025 31.8206 26.025L31.6266 25.845L31.3579 25.815L31.3281 25.53H30.8803L30.8057 25.89L30.6415 25.965L30.5967 25.86L30.5221 26.145H30.0743L30.0444 25.845L30.3131 25.77L30.4176 25.62L30.4922 25.215H30.8206L31.2385 25.095C31.2684 24.66 31.4923 24.765 31.4923 24.765L31.8654 25.065L31.8953 25.215L31.746 25.29L31.7162 25.5L31.7908 25.785H31.9848C32.0595 25.38 32.5819 25.38 32.7312 25.635L32.8804 25.275C32.5371 25.095 32.8804 24.825 32.97 24.945C33.0745 25.065 33.2984 24.615 33.2984 24.615C33.2984 24.615 33.4775 24.84 33.2984 24.54C33.1192 24.24 33.4178 24.09 33.4178 24.09C33.373 23.79 33.7461 23.835 33.7461 23.835L33.776 23.43L33.4327 23.4C33.3581 23.76 33.0595 23.445 33.2088 23.37C33.3581 23.295 33.5073 23.145 33.5073 23.145V22.89L33.6566 22.845L33.6864 22.59H34.0596L34.388 22.44L34.4626 22.32L34.8059 22.29L35.2985 21.84L35.2537 21.645C34.9552 21.645 35.2537 21.42 35.2537 21.42L35.2836 21ZM21.8051 43.755L21.611 43.455L21.9095 43.5L22.223 43.77L22.3573 44.1L22.1782 44.205L22.0737 44.055L21.8349 43.98L21.8051 43.755ZM16.3271 36.165L16.4465 36.51L16.6256 36.645L16.7898 37.02L16.7003 37.2L16.4167 36.945L16.2226 36.66L16.1181 36.435L15.9539 35.985L16.3271 36.165ZM14.8345 34.815H14.715V35.07H14.9091V35.4H15.0584L15.0285 35.025L14.8345 34.95V34.815ZM34.3581 19.395L34.5074 19.365L34.5372 19.515L34.388 19.545L34.3581 19.395ZM34.5372 19.305L34.582 19.155L34.7761 19.215L34.7462 19.365L34.5372 19.305ZM34.8955 19.155L34.9104 19.005L34.7462 18.975L34.7164 19.125L34.8955 19.155ZM35.1492 18.825H35.3433V18.975H35.1492V18.825ZM36.418 19.005L36.4329 18.855L36.612 18.87L36.5822 19.02L36.418 19.005ZM36.9105 19.11L36.9255 18.96L36.7463 18.93L36.7314 19.08L36.9105 19.11ZM37.0896 19.125H37.2837V19.275H37.0896V19.125ZM37.3135 19.38V19.56L37.4628 19.545V19.365L37.3135 19.38Z" fill="#DC8630"/>
</svg>
