<svg width="24" height="24" viewBox="0 0 24 24" fill="none" xmlns="http://www.w3.org/2000/svg">
<path d="M2.25018 4.02506C2.24681 3.79103 2.29042 3.55871 2.37843 3.34183C2.46644 3.12496 2.59706 2.92794 2.76256 2.76244C2.92806 2.59694 3.12508 2.46632 3.34195 2.37831C3.55883 2.2903 3.79115 2.24669 4.02518 2.25006L11.5132 2.34506C12.2318 2.35376 12.9185 2.64343 13.4262 3.15206L20.7252 10.4501C21.1482 10.8731 21.5232 11.4841 21.6772 12.1371C21.8332 12.8011 21.7732 13.6131 21.1482 14.2371L14.2382 21.1481C13.6132 21.7731 12.8012 21.8331 12.1372 21.6771C11.4996 21.517 10.9168 21.1881 10.4502 20.7251L3.15218 13.4261C2.64445 12.9177 2.35494 12.2315 2.34518 11.5131L2.25018 4.02506ZM7.84218 6.31506C7.70001 6.18258 7.51196 6.11046 7.31766 6.11388C7.12336 6.11731 6.93797 6.19602 6.80056 6.33344C6.66315 6.47085 6.58443 6.65624 6.58101 6.85054C6.57758 7.04484 6.6497 7.23288 6.78218 7.37506L7.48918 8.08306C7.6307 8.21961 7.82018 8.29512 8.01683 8.29332C8.21348 8.29152 8.40155 8.21255 8.54054 8.07343C8.67954 7.93431 8.75832 7.74616 8.75994 7.54951C8.76155 7.35286 8.68587 7.16345 8.54918 7.02206L7.84218 6.31506Z" fill="black"/>
</svg>
