<svg width="300" height="273" viewBox="0 0 300 273" fill="none" xmlns="http://www.w3.org/2000/svg">
<path d="M33.0227 28.7274H39.0909L45.5 44.3637H45.7727L52.1818 28.7274H58.25V52.0001H53.4772V36.8524H53.2841L47.2613 51.8865H44.0113L37.9886 36.7955H37.7954V52.0001H33.0227V28.7274Z" fill="black"/>
<path d="M66.3153 52.0001H61.0426L69.0767 28.7274H75.4176L83.4403 52.0001H78.1676L72.338 34.0455H72.1562L66.3153 52.0001ZM65.9858 42.8524H78.4403V46.6933H65.9858V42.8524Z" fill="black"/>
<path d="M105.707 28.7274V52.0001H101.457L91.3324 37.3524H91.1619V52.0001H86.2415V28.7274H90.5596L100.605 43.3637H100.81V28.7274H105.707Z" fill="black"/>
<path d="M113.784 52.0001H108.511L116.545 28.7274H122.886L130.909 52.0001H125.636L119.807 34.0455H119.625L113.784 52.0001ZM113.455 42.8524H125.909V46.6933H113.455V42.8524Z" fill="black"/>
<path d="M148.048 36.2501C147.889 35.6971 147.666 35.2084 147.378 34.7842C147.09 34.3524 146.738 33.9887 146.321 33.6933C145.912 33.3902 145.442 33.1592 144.912 33.0001C144.389 32.841 143.81 32.7615 143.173 32.7615C141.984 32.7615 140.938 33.0569 140.037 33.6478C139.143 34.2387 138.446 35.0986 137.946 36.2274C137.446 37.3486 137.196 38.7198 137.196 40.341C137.196 41.9622 137.442 43.341 137.935 44.4774C138.427 45.6137 139.124 46.4812 140.026 47.0796C140.927 47.6705 141.991 47.966 143.219 47.966C144.332 47.966 145.283 47.769 146.071 47.3751C146.866 46.9736 147.473 46.4092 147.889 45.6819C148.313 44.9546 148.526 44.0948 148.526 43.1024L149.526 43.2501H143.526V39.5455H153.264V42.4774C153.264 44.5228 152.832 46.2804 151.969 47.7501C151.105 49.2122 149.916 50.341 148.401 51.1365C146.885 51.9243 145.151 52.3183 143.196 52.3183C141.014 52.3183 139.098 51.8372 137.446 50.8751C135.794 49.9054 134.507 48.5304 133.582 46.7501C132.666 44.9622 132.207 42.841 132.207 40.3865C132.207 38.5001 132.48 36.8183 133.026 35.341C133.579 33.8561 134.351 32.5986 135.344 31.5683C136.336 30.538 137.491 29.7539 138.81 29.216C140.128 28.6781 141.556 28.4092 143.094 28.4092C144.412 28.4092 145.639 28.6024 146.776 28.9887C147.912 29.3675 148.919 29.9054 149.798 30.6024C150.685 31.2993 151.408 32.1289 151.969 33.091C152.529 34.0455 152.889 35.0986 153.048 36.2501H148.048Z" fill="black"/>
<path d="M156.96 52.0001V28.7274H172.642V32.7842H161.881V38.3296H171.835V42.3865H161.881V47.9433H172.687V52.0001H156.96Z" fill="black"/>
<path d="M176.554 28.7274H182.622L189.031 44.3637H189.304L195.713 28.7274H201.781V52.0001H197.008V36.8524H196.815L190.793 51.8865H187.543L181.52 36.7955H181.327V52.0001H176.554V28.7274Z" fill="black"/>
<path d="M205.835 52.0001V28.7274H221.517V32.7842H210.756V38.3296H220.71V42.3865H210.756V47.9433H221.562V52.0001H205.835Z" fill="black"/>
<path d="M244.895 28.7274V52.0001H240.645L230.52 37.3524H230.349V52.0001H225.429V28.7274H229.747L239.793 43.3637H239.997V28.7274H244.895Z" fill="black"/>
<path d="M248.074 32.7842V28.7274H267.188V32.7842H260.062V52.0001H255.199V32.7842H248.074Z" fill="black"/>
<path d="M109.648 66.4205C109.557 65.5039 109.167 64.7918 108.477 64.2842C107.788 63.7766 106.852 63.5228 105.67 63.5228C104.867 63.5228 104.189 63.6365 103.636 63.8637C103.083 64.0834 102.659 64.3902 102.364 64.7842C102.076 65.1781 101.932 65.6251 101.932 66.1251C101.917 66.5418 102.004 66.9054 102.193 67.216C102.39 67.5266 102.659 67.7955 103 68.0228C103.341 68.2425 103.735 68.4357 104.182 68.6024C104.629 68.7615 105.106 68.8978 105.614 69.0115L107.705 69.5115C108.72 69.7387 109.651 70.0418 110.5 70.4205C111.348 70.7993 112.083 71.2652 112.705 71.8183C113.326 72.3713 113.807 73.0228 114.148 73.7728C114.496 74.5228 114.674 75.3827 114.682 76.3524C114.674 77.7766 114.311 79.0115 113.591 80.0569C112.879 81.0948 111.848 81.9016 110.5 82.4774C109.159 83.0455 107.542 83.3296 105.648 83.3296C103.769 83.3296 102.133 83.0418 100.739 82.466C99.3523 81.8902 98.2689 81.038 97.4886 79.9092C96.7159 78.7728 96.3106 77.3675 96.2727 75.6933H101.034C101.087 76.4736 101.311 77.1251 101.705 77.6478C102.106 78.163 102.64 78.5531 103.307 78.8183C103.981 79.0758 104.742 79.2046 105.591 79.2046C106.424 79.2046 107.148 79.0834 107.761 78.841C108.383 78.5986 108.864 78.2615 109.205 77.8296C109.545 77.3978 109.716 76.9016 109.716 76.341C109.716 75.8183 109.561 75.3789 109.25 75.0228C108.947 74.6668 108.5 74.3637 107.909 74.1137C107.326 73.8637 106.61 73.6365 105.761 73.4319L103.227 72.7955C101.265 72.3183 99.7159 71.5721 98.5795 70.5569C97.4432 69.5418 96.8788 68.1743 96.8863 66.4546C96.8788 65.0455 97.2538 63.8145 98.0113 62.7615C98.7765 61.7084 99.8257 60.8865 101.159 60.2955C102.492 59.7046 104.008 59.4092 105.705 59.4092C107.432 59.4092 108.939 59.7046 110.227 60.2955C111.523 60.8865 112.53 61.7084 113.25 62.7615C113.97 63.8145 114.341 65.0342 114.364 66.4205H109.648Z" fill="black"/>
<path d="M116.628 59.7274H122.139L127.446 69.7501H127.673L132.98 59.7274H138.491L130.003 74.7728V83.0001H125.116V74.7728L116.628 59.7274Z" fill="black"/>
<path d="M153.804 66.4205C153.713 65.5039 153.323 64.7918 152.633 64.2842C151.944 63.7766 151.009 63.5228 149.827 63.5228C149.024 63.5228 148.346 63.6365 147.793 63.8637C147.24 64.0834 146.815 64.3902 146.52 64.7842C146.232 65.1781 146.088 65.6251 146.088 66.1251C146.073 66.5418 146.16 66.9054 146.349 67.216C146.546 67.5266 146.815 67.7955 147.156 68.0228C147.497 68.2425 147.891 68.4357 148.338 68.6024C148.785 68.7615 149.262 68.8978 149.77 69.0115L151.861 69.5115C152.876 69.7387 153.808 70.0418 154.656 70.4205C155.505 70.7993 156.24 71.2652 156.861 71.8183C157.482 72.3713 157.963 73.0228 158.304 73.7728C158.652 74.5228 158.83 75.3827 158.838 76.3524C158.83 77.7766 158.467 79.0115 157.747 80.0569C157.035 81.0948 156.005 81.9016 154.656 82.4774C153.315 83.0455 151.698 83.3296 149.804 83.3296C147.925 83.3296 146.289 83.0418 144.895 82.466C143.509 81.8902 142.425 81.038 141.645 79.9092C140.872 78.7728 140.467 77.3675 140.429 75.6933H145.19C145.243 76.4736 145.467 77.1251 145.861 77.6478C146.262 78.163 146.796 78.5531 147.463 78.8183C148.137 79.0758 148.899 79.2046 149.747 79.2046C150.58 79.2046 151.304 79.0834 151.918 78.841C152.539 78.5986 153.02 78.2615 153.361 77.8296C153.702 77.3978 153.872 76.9016 153.872 76.341C153.872 75.8183 153.717 75.3789 153.406 75.0228C153.103 74.6668 152.656 74.3637 152.065 74.1137C151.482 73.8637 150.766 73.6365 149.918 73.4319L147.383 72.7955C145.421 72.3183 143.872 71.5721 142.736 70.5569C141.599 69.5418 141.035 68.1743 141.043 66.4546C141.035 65.0455 141.41 63.8145 142.168 62.7615C142.933 61.7084 143.982 60.8865 145.315 60.2955C146.649 59.7046 148.164 59.4092 149.861 59.4092C151.588 59.4092 153.096 59.7046 154.383 60.2955C155.679 60.8865 156.687 61.7084 157.406 62.7615C158.126 63.8145 158.497 65.0342 158.52 66.4205H153.804Z" fill="black"/>
<path d="M161.261 63.7842V59.7274H180.375V63.7842H173.25V83.0001H168.386V63.7842H161.261Z" fill="black"/>
<path d="M183.523 83.0001V59.7274H199.205V63.7842H188.443V69.3296H198.398V73.3865H188.443V78.9433H199.25V83.0001H183.523Z" fill="black"/>
<path d="M203.116 59.7274H209.185L215.594 75.3637H215.866L222.276 59.7274H228.344V83.0001H223.571V67.8524H223.378L217.355 82.8865H214.105L208.082 67.7955H207.889V83.0001H203.116V59.7274Z" fill="black"/>
<path d="M108.136 93.7842V89.7274H127.25V93.7842H120.125V113H115.261V93.7842H108.136Z" fill="black"/>
<path d="M130.398 113V89.7274H139.58C141.337 89.7274 142.837 90.0418 144.08 90.6705C145.33 91.2918 146.28 92.1743 146.932 93.3183C147.591 94.4546 147.92 95.7918 147.92 97.3296C147.92 98.8751 147.587 100.205 146.92 101.318C146.254 102.424 145.288 103.273 144.023 103.864C142.765 104.455 141.242 104.75 139.455 104.75H133.307V100.796H138.659C139.598 100.796 140.379 100.667 141 100.409C141.621 100.152 142.083 99.7652 142.386 99.2501C142.697 98.7349 142.852 98.0948 142.852 97.3296C142.852 96.5569 142.697 95.9054 142.386 95.3751C142.083 94.8448 141.617 94.4433 140.989 94.1705C140.367 93.8902 139.583 93.7501 138.636 93.7501H135.318V113H130.398ZM142.966 102.409L148.75 113H143.318L137.659 102.409H142.966Z" fill="black"/>
<path d="M155.409 113H150.136L158.17 89.7274H164.511L172.534 113H167.261L161.432 95.0455H161.25L155.409 113ZM155.08 103.852H167.534V107.693H155.08V103.852Z" fill="black"/>
<path d="M180.256 89.7274V113H175.335V89.7274H180.256Z" fill="black"/>
<path d="M203.77 89.7274V113H199.52L189.395 98.3524H189.224V113H184.304V89.7274H188.622L198.668 104.364H198.872V89.7274H203.77Z" fill="black"/>
<path d="M212.756 89.7274V113H207.835V89.7274H212.756Z" fill="black"/>
<path d="M236.27 89.7274V113H232.02L221.895 98.3524H221.724V113H216.804V89.7274H221.122L231.168 104.364H231.372V89.7274H236.27Z" fill="black"/>
<path d="M255.767 97.2501C255.608 96.6971 255.384 96.2084 255.097 95.7842C254.809 95.3524 254.456 94.9887 254.04 94.6933C253.631 94.3902 253.161 94.1592 252.631 94.0001C252.108 93.841 251.528 93.7615 250.892 93.7615C249.703 93.7615 248.657 94.0569 247.756 94.6478C246.862 95.2387 246.165 96.0986 245.665 97.2274C245.165 98.3486 244.915 99.7198 244.915 101.341C244.915 102.962 245.161 104.341 245.653 105.477C246.146 106.614 246.843 107.481 247.744 108.08C248.646 108.671 249.71 108.966 250.937 108.966C252.051 108.966 253.002 108.769 253.79 108.375C254.585 107.974 255.191 107.409 255.608 106.682C256.032 105.955 256.244 105.095 256.244 104.102L257.244 104.25H251.244V100.546H260.983V103.477C260.983 105.523 260.551 107.28 259.688 108.75C258.824 110.212 257.634 111.341 256.119 112.136C254.604 112.924 252.869 113.318 250.915 113.318C248.733 113.318 246.816 112.837 245.165 111.875C243.513 110.905 242.225 109.53 241.301 107.75C240.384 105.962 239.926 103.841 239.926 101.386C239.926 99.5001 240.199 97.8183 240.744 96.341C241.297 94.8561 242.07 93.5986 243.062 92.5683C244.055 91.538 245.21 90.7539 246.528 90.216C247.847 89.6781 249.275 89.4092 250.812 89.4092C252.131 89.4092 253.358 89.6024 254.494 89.9887C255.631 90.3675 256.638 90.9054 257.517 91.6024C258.403 92.2993 259.127 93.1289 259.688 94.091C260.248 95.0455 260.608 96.0986 260.767 97.2501H255.767Z" fill="black"/>
<path d="M149.5 192C156.404 192 162 186.404 162 179.5C162 172.596 156.404 167 149.5 167C142.596 167 137 172.596 137 179.5C137 186.404 142.596 192 149.5 192Z" fill="black"/>
<path fill-rule="evenodd" clip-rule="evenodd" d="M44 0C19.6995 0 0 19.6995 0 44V169C0 193.301 19.6995 213 44 213H104V241H83C74.1634 241 67 248.163 67 257C67 265.837 74.1634 273 83 273H217C225.837 273 233 265.837 233 257C233 248.163 225.837 241 217 241H196V213H256C280.301 213 300 193.301 300 169V44C300 19.6995 280.301 0 256 0H44ZM256 14H44C27.4315 14 14 27.4315 14 44V149H286V44C286 27.4315 272.569 14 256 14ZM14 169V160H286V169C286 185.569 272.569 199 256 199H44C27.4315 199 14 185.569 14 169ZM83 252H217C219.761 252 222 254.239 222 257C222 259.761 219.761 262 217 262H83C80.2386 262 78 259.761 78 257C78 254.239 80.2386 252 83 252ZM184 217H116V235H184V217Z" fill="black"/>
<path d="M64 68.1667C78.2678 68.1667 89.8333 79.7322 89.8333 94C89.8333 108.268 78.2678 119.833 64 119.833C49.7322 119.833 38.1667 108.268 38.1667 94C38.1667 79.7322 49.7322 68.1667 64 68.1667ZM64 73.3333C58.5189 73.3333 53.2622 75.5107 49.3865 79.3865C45.5107 83.2622 43.3333 88.5189 43.3333 94C43.3333 99.4811 45.5107 104.738 49.3865 108.614C53.2622 112.489 58.5189 114.667 64 114.667C69.4811 114.667 74.7378 112.489 78.6135 108.614C82.4893 104.738 84.6667 99.4811 84.6667 94C84.6667 88.5189 82.4893 83.2622 78.6135 79.3865C74.7378 75.5107 69.4811 73.3333 64 73.3333ZM64 78.5C64.6327 78.5001 65.2435 78.7324 65.7163 79.1528C66.1891 79.5733 66.4912 80.1527 66.5653 80.7811L66.5833 81.0833V92.9305L73.5764 99.9236C74.0397 100.388 74.3087 101.012 74.3288 101.668C74.3488 102.324 74.1184 102.963 73.6843 103.456C73.2502 103.948 72.645 104.257 71.9916 104.319C71.3382 104.381 70.6856 104.192 70.1664 103.791L69.9236 103.576L62.1736 95.8264C61.7721 95.4246 61.5142 94.9016 61.4399 94.3384L61.4167 94V81.0833C61.4167 80.3982 61.6888 79.7411 62.1733 79.2566C62.6578 78.7722 63.3149 78.5 64 78.5Z" fill="black"/>
</svg>
