<svg width="66" height="60" viewBox="0 0 66 60" fill="none" xmlns="http://www.w3.org/2000/svg">
<path d="M23.1479 12.9479C24.8445 12.9479 26.4715 12.2658 27.6712 11.0517C28.8708 9.83762 29.5448 8.19094 29.5448 6.47394C29.5448 4.75695 28.8708 3.11028 27.6712 1.89617C26.4715 0.682075 24.8445 0 23.1479 0C21.4514 0 19.8243 0.682075 18.6247 1.89617C17.4251 3.11028 16.7511 4.75695 16.7511 6.47394C16.7511 8.19094 17.4251 9.83762 18.6247 11.0517C19.8243 12.2658 21.4514 12.9479 23.1479 12.9479ZM11.4204 18.9212C11.4204 16.8107 13.1071 15.1059 15.1903 15.1059H25.3548C24.6069 16.4183 24.2135 17.9068 24.2141 19.4218C24.214 20.6465 24.4714 21.8571 24.9692 22.9733C25.467 24.0895 26.1937 25.0857 27.1012 25.8958H24.7855C23.5838 25.8958 22.4106 26.2669 21.4227 26.9594C20.4348 27.6519 19.6791 28.6329 19.2565 29.7715C16.0624 28.9817 14.0815 27.2186 12.9152 25.2549C11.4204 22.7365 11.4204 20.1469 11.4204 19.6959V18.9212ZM41.2723 19.4218C41.2729 17.9068 40.8794 16.4183 40.1315 15.1059H50.2961C52.3814 15.1059 54.0659 16.8128 54.0659 18.9212V19.6981C54.0659 20.1448 54.0659 22.7365 52.5733 25.2549C51.4049 27.2186 49.424 28.9817 46.2298 29.7715C45.8073 28.6329 45.0516 27.6519 44.0637 26.9594C43.0757 26.2669 41.9026 25.8958 40.7008 25.8958H38.3852C39.2926 25.0857 40.0194 24.0895 40.5172 22.9733C41.0149 21.8571 41.2724 20.6465 41.2723 19.4218ZM48.7352 6.47394C48.7352 8.19094 48.0613 9.83762 46.8617 11.0517C45.662 12.2658 44.035 12.9479 42.3384 12.9479C40.6419 12.9479 39.0148 12.2658 37.8152 11.0517C36.6155 9.83762 35.9416 8.19094 35.9416 6.47394C35.9416 4.75695 36.6155 3.11028 37.8152 1.89617C39.0148 0.682075 40.6419 0 42.3384 0C44.035 0 45.662 0.682075 46.8617 1.89617C48.0613 3.11028 48.7352 4.75695 48.7352 6.47394ZM21.0157 31.8691C21.0157 29.7586 22.7023 28.0538 24.7855 28.0538H40.7008C42.7841 28.0538 44.4707 29.7607 44.4707 31.8691V32.6459C44.4707 33.0926 44.4707 35.6844 42.9781 38.2027C41.3938 40.8657 38.3148 43.1596 32.7432 43.1596C27.1715 43.1596 24.0904 40.8657 22.5083 38.2027C21.0157 35.6844 21.0157 33.0948 21.0157 32.6438V31.8691ZM32.7432 25.8958C33.5832 25.8958 34.415 25.7283 35.1911 25.403C35.9672 25.0776 36.6724 24.6008 37.2664 23.9996C37.8604 23.3984 38.3316 22.6848 38.6531 21.8993C38.9746 21.1138 39.14 20.272 39.14 19.4218C39.14 18.5717 38.9746 17.7298 38.6531 16.9444C38.3316 16.1589 37.8604 15.4452 37.2664 14.8441C36.6724 14.2429 35.9672 13.766 35.1911 13.4407C34.415 13.1153 33.5832 12.9479 32.7432 12.9479C31.0466 12.9479 29.4196 13.63 28.2199 14.8441C27.0203 16.0582 26.3464 17.7048 26.3464 19.4218C26.3464 21.1388 27.0203 22.7855 28.2199 23.9996C29.4196 25.2137 31.0466 25.8958 32.7432 25.8958Z" fill="#DC8630"/>
<path d="M3.02093 47.6499C3.07342 47.6433 3.15543 47.6399 3.26696 47.6399H3.52283C3.96241 47.6399 4.39215 47.6731 4.81204 47.7395C5.02855 47.7727 5.19585 47.8059 5.31394 47.8391V49.2634C5.21553 49.2568 5.05151 49.2402 4.82188 49.2136C4.51352 49.1804 4.24453 49.1638 4.0149 49.1638C3.75902 49.1638 3.55236 49.1738 3.3949 49.1937C3.244 49.207 3.11934 49.2335 3.02093 49.2734V47.6499ZM3.52283 54.6517C2.86675 54.6517 2.34516 54.5953 1.95807 54.4824C1.57754 54.3629 1.28886 54.167 1.09204 53.8948C0.901775 53.6358 0.770558 53.2938 0.698388 52.8689C0.63278 52.4373 0.599976 51.8629 0.599976 51.1458C0.599976 50.515 0.622939 50.0038 0.668864 49.612C0.721351 49.2202 0.813203 48.8916 0.94442 48.626C1.0822 48.3537 1.2823 48.1446 1.54474 47.9985C1.81373 47.8458 2.16802 47.7429 2.6076 47.6897V51.1458C2.6076 51.5177 2.61416 51.8762 2.62728 52.2215C2.6404 52.4871 2.68961 52.6863 2.7749 52.8191C2.86675 52.9519 3.00781 53.0349 3.19807 53.0681C3.38178 53.1079 3.65405 53.1278 4.0149 53.1278C4.38887 53.1278 4.70707 53.1112 4.9695 53.078C5.07447 53.0714 5.20241 53.0548 5.35331 53.0282V54.4724C5.03183 54.5455 4.6677 54.5953 4.26093 54.6218C4.03786 54.6418 3.79183 54.6517 3.52283 54.6517Z" fill="#DC8630"/>
<path d="M10.9172 51.1458C10.9172 50.5682 10.9139 50.1897 10.9073 50.0104C10.8942 49.7382 10.8581 49.5423 10.7991 49.4228C10.74 49.2966 10.6449 49.2202 10.5137 49.1937C10.3825 49.1738 10.1955 49.1638 9.95272 49.1638C9.6706 49.1638 9.4869 49.1771 9.40161 49.2036V47.6499C9.46066 47.6433 9.54923 47.6399 9.66732 47.6399H9.95272C10.6875 47.6399 11.255 47.6997 11.6553 47.8192C12.062 47.9321 12.3573 48.1213 12.541 48.3869C12.7116 48.6326 12.8165 48.9546 12.8559 49.353C12.9018 49.7514 12.9248 50.349 12.9248 51.1458C12.9248 51.843 12.9084 52.3809 12.8756 52.7593C12.8493 53.1312 12.7772 53.4399 12.6591 53.6856C12.5279 53.9645 12.3245 54.177 12.0489 54.323C11.7799 54.4691 11.4027 54.5654 10.9172 54.6119V51.1458ZM9.95272 54.6517C8.99484 54.6517 8.30595 54.5455 7.88605 54.333C7.66955 54.2268 7.49896 54.084 7.37431 53.9047C7.24965 53.7254 7.1578 53.503 7.09875 53.2374C7.04626 53.005 7.01346 52.7394 7.00034 52.4406C6.98722 52.1352 6.98066 51.7036 6.98066 51.1458C6.98066 50.4486 6.99378 49.9141 7.02002 49.5423C7.05283 49.1704 7.12828 48.8584 7.24637 48.606C7.37759 48.3338 7.57769 48.1247 7.84669 47.9786C8.11568 47.8325 8.49621 47.7329 8.98828 47.6798V51.1458C8.98828 51.5376 8.99484 51.9127 9.00796 52.2713C9.02108 52.5435 9.05388 52.7427 9.10637 52.8689C9.16542 52.995 9.26055 53.0681 9.39177 53.088C9.5033 53.1146 9.69029 53.1278 9.95272 53.1278C10.2217 53.1278 10.4054 53.1179 10.5038 53.098V54.6418C10.4448 54.6484 10.3562 54.6517 10.2381 54.6517H9.95272Z" fill="#DC8630"/>
<path d="M14.8167 48.0184V47.7196H16.6275L19.4618 53.8151L19.137 54.572H17.8576L14.8167 48.0184ZM20.377 51.6936H20.3376L19.6783 53.3071L18.8319 51.4745L20.377 47.7196H22.2469V54.572H20.377V51.6936ZM14.8167 49.0044L16.6275 52.9087V54.572H14.8167V49.0044Z" fill="#DC8630"/>
<path d="M24.3112 48.0184V47.7196H26.122L28.9563 53.8151L28.6315 54.572H27.3522L24.3112 48.0184ZM29.8715 51.6936H29.8322L29.1728 53.3071L28.3265 51.4745L29.8715 47.7196H31.7414V54.572H29.8715V51.6936ZM24.3112 49.0044L26.122 52.9087V54.572H24.3112V49.0044Z" fill="#DC8630"/>
<path d="M36.5613 54.6517C35.8724 54.6517 35.341 54.5953 34.967 54.4824C34.593 54.3695 34.3175 54.1869 34.1403 53.9346C33.9763 53.7022 33.8746 53.4067 33.8353 53.0482C33.7959 52.6896 33.7762 52.1551 33.7762 51.4446V47.7196H35.7445V51.843C35.7445 52.0887 35.751 52.3244 35.7641 52.5502C35.7773 52.7295 35.8068 52.8589 35.8527 52.9386C35.8986 53.0183 35.9774 53.0681 36.0889 53.088C36.1873 53.1146 36.3448 53.1278 36.5613 53.1278H36.7876C36.8401 53.1278 36.8992 53.1212 36.9648 53.1079V54.6418C36.9189 54.6484 36.8532 54.6517 36.768 54.6517H36.5613ZM37.3781 47.7196H39.3464V51.4446C39.3464 52.0953 39.3332 52.5867 39.307 52.9187C39.2808 53.2507 39.2086 53.5296 39.0905 53.7553C38.9593 54.0143 38.7592 54.2135 38.4902 54.3529C38.2212 54.4924 37.8505 54.582 37.3781 54.6218V47.7196Z" fill="#DC8630"/>
<path d="M41.3877 47.9985V47.7196H43.356L47.1547 54.2832V54.572H45.1963L41.3877 47.9985ZM45.2849 50.2196V47.7196H47.1547V53.4565L45.2849 50.2196ZM41.3877 48.8252L43.2576 52.0621V54.572H41.3877V48.8252Z" fill="#DC8630"/>
<path d="M49.2196 47.7196H51.1879V54.572H49.2196V47.7196Z" fill="#DC8630"/>
<path d="M52.7042 47.7196H58.2448V49.3132H52.7042V47.7196ZM54.4855 49.7116H56.4537V54.572H54.4855V49.7116Z" fill="#DC8630"/>
<path d="M61.247 52.3111L61.1584 52.1119L60.9025 51.604L60.6565 51.0761C60.6302 51.0296 60.5974 50.9599 60.5581 50.8669L60.1546 50.0204L59.072 47.7196H61.0797L63.2152 52.3211V54.572H61.247V52.3111ZM62.5165 49.8411L63.4317 47.7196H65.4L64.6324 49.3331L64.3076 50.0104L63.4416 51.8331L62.5165 49.8411Z" fill="#DC8630"/>
<path d="M2.80745 57.5525V59.967H2.37177L1.33382 58.4473H1.31634V59.967H0.811933V57.5525H1.2546L2.2844 59.071H2.30536V57.5525H2.80745Z" fill="#DC8630"/>
<path d="M5.48219 58.7597C5.48219 59.023 5.43288 59.247 5.33425 59.4317C5.23639 59.6164 5.10282 59.7575 4.93351 59.855C4.76499 59.9517 4.57549 60 4.36503 60C4.15301 60 3.96274 59.9513 3.79422 59.8538C3.62569 59.7564 3.4925 59.6153 3.39465 59.4306C3.2968 59.2459 3.24787 59.0222 3.24787 58.7597C3.24787 58.4964 3.2968 58.2724 3.39465 58.0877C3.4925 57.903 3.62569 57.7623 3.79422 57.6656C3.96274 57.5682 4.15301 57.5195 4.36503 57.5195C4.57549 57.5195 4.76499 57.5682 4.93351 57.6656C5.10282 57.7623 5.23639 57.903 5.33425 58.0877C5.43288 58.2724 5.48219 58.4964 5.48219 58.7597ZM4.97079 58.7597C4.97079 58.5892 4.94555 58.4453 4.89507 58.3282C4.84537 58.2111 4.77508 58.1223 4.68422 58.0618C4.59336 58.0013 4.48696 57.971 4.36503 57.971C4.2431 57.971 4.13671 58.0013 4.04584 58.0618C3.95498 58.1223 3.88431 58.2111 3.83383 58.3282C3.78412 58.4453 3.75927 58.5892 3.75927 58.7597C3.75927 58.9303 3.78412 59.0741 3.83383 59.1912C3.88431 59.3083 3.95498 59.3972 4.04584 59.4577C4.13671 59.5182 4.2431 59.5485 4.36503 59.5485C4.48696 59.5485 4.59336 59.5182 4.68422 59.4577C4.77508 59.3972 4.84537 59.3083 4.89507 59.1912C4.94555 59.0741 4.97079 58.9303 4.97079 58.7597Z" fill="#DC8630"/>
<path d="M7.91696 57.5525V59.967H7.48128L6.44334 58.4473H6.42586V59.967H5.92145V57.5525H6.36412L7.39391 59.071H7.41488V57.5525H7.91696Z" fill="#DC8630"/>
<path d="M9.50483 58.5605V58.959H8.4168V58.5605H9.50483Z" fill="#DC8630"/>
<path d="M11.5846 58.3329C11.5683 58.2756 11.5454 58.2249 11.5159 58.1809C11.4864 58.1361 11.4502 58.0983 11.4075 58.0677C11.3656 58.0362 11.3174 58.0123 11.2631 57.9958C11.2095 57.9793 11.1501 57.971 11.0848 57.971C10.9629 57.971 10.8557 58.0017 10.7633 58.063C10.6717 58.1243 10.6002 58.2135 10.549 58.3306C10.4977 58.4469 10.4721 58.5892 10.4721 58.7574C10.4721 58.9256 10.4973 59.0686 10.5478 59.1865C10.5983 59.3044 10.6697 59.3944 10.7622 59.4565C10.8546 59.5178 10.9637 59.5485 11.0895 59.5485C11.2037 59.5485 11.3011 59.528 11.3819 59.4872C11.4634 59.4455 11.5256 59.3869 11.5683 59.3115C11.6118 59.236 11.6335 59.1468 11.6335 59.0439L11.736 59.0592H11.121V58.6748H12.1193V58.979C12.1193 59.1912 12.075 59.3736 11.9865 59.5261C11.898 59.6777 11.776 59.7949 11.6207 59.8774C11.4654 59.9591 11.2875 60 11.0872 60C10.8635 60 10.667 59.9501 10.4977 59.8503C10.3284 59.7497 10.1964 59.607 10.1016 59.4223C10.0077 59.2368 9.96069 59.0167 9.96069 58.7621C9.96069 58.5664 9.98865 58.3919 10.0446 58.2386C10.1013 58.0846 10.1805 57.9541 10.2822 57.8472C10.3839 57.7403 10.5024 57.659 10.6375 57.6032C10.7726 57.5474 10.919 57.5195 11.0767 57.5195C11.2118 57.5195 11.3376 57.5395 11.4541 57.5796C11.5706 57.6189 11.6739 57.6747 11.764 57.747C11.8549 57.8193 11.929 57.9054 11.9865 58.0052C12.044 58.1042 12.0809 58.2135 12.0972 58.3329H11.5846Z" fill="#DC8630"/>
<path d="M14.7562 58.7597C14.7562 59.023 14.7069 59.247 14.6082 59.4317C14.5104 59.6164 14.3768 59.7575 14.2075 59.855C14.039 59.9517 13.8495 60 13.639 60C13.427 60 13.2367 59.9513 13.0682 59.8538C12.8997 59.7564 12.7665 59.6153 12.6686 59.4306C12.5708 59.2459 12.5219 59.0222 12.5219 58.7597C12.5219 58.4964 12.5708 58.2724 12.6686 58.0877C12.7665 57.903 12.8997 57.7623 13.0682 57.6656C13.2367 57.5682 13.427 57.5195 13.639 57.5195C13.8495 57.5195 14.039 57.5682 14.2075 57.6656C14.3768 57.7623 14.5104 57.903 14.6082 58.0877C14.7069 58.2724 14.7562 58.4964 14.7562 58.7597ZM14.2448 58.7597C14.2448 58.5892 14.2195 58.4453 14.1691 58.3282C14.1194 58.2111 14.0491 58.1223 13.9582 58.0618C13.8673 58.0013 13.7609 57.971 13.639 57.971C13.5171 57.971 13.4107 58.0013 13.3198 58.0618C13.229 58.1223 13.1583 58.2111 13.1078 58.3282C13.0581 58.4453 13.0333 58.5892 13.0333 58.7597C13.0333 58.9303 13.0581 59.0741 13.1078 59.1912C13.1583 59.3083 13.229 59.3972 13.3198 59.4577C13.4107 59.5182 13.5171 59.5485 13.639 59.5485C13.7609 59.5485 13.8673 59.5182 13.9582 59.4577C14.0491 59.3972 14.1194 59.3083 14.1691 59.1912C14.2195 59.0741 14.2448 58.9303 14.2448 58.7597Z" fill="#DC8630"/>
<path d="M15.4919 57.5525L16.0685 59.3869H16.0907L16.6685 57.5525H17.2276L16.4052 59.967H15.7552L14.9316 57.5525H15.4919Z" fill="#DC8630"/>
<path d="M17.5804 59.967V57.5525H19.188V57.9734H18.0848V58.5487H19.1053V58.9696H18.0848V59.5461H19.1927V59.967H17.5804Z" fill="#DC8630"/>
<path d="M19.6546 59.967V57.5525H20.5959C20.7761 57.5525 20.9298 57.5851 21.0572 57.6503C21.1853 57.7148 21.2828 57.8063 21.3496 57.925C21.4172 58.0429 21.4509 58.1816 21.4509 58.3412C21.4509 58.5015 21.4168 58.6395 21.3484 58.755C21.2801 58.8698 21.1811 58.9578 21.0514 59.0191C20.9225 59.0804 20.7664 59.1111 20.5831 59.1111H19.9529V58.7008H20.5015C20.5978 58.7008 20.6778 58.6874 20.7415 58.6607C20.8052 58.634 20.8526 58.5939 20.8836 58.5404C20.9155 58.487 20.9314 58.4206 20.9314 58.3412C20.9314 58.261 20.9155 58.1934 20.8836 58.1384C20.8526 58.0834 20.8048 58.0417 20.7403 58.0134C20.6767 57.9844 20.5963 57.9698 20.4992 57.9698H20.159V59.967H19.6546ZM20.943 58.8682L21.536 59.967H20.9792L20.399 58.8682H20.943Z" fill="#DC8630"/>
<path d="M23.8685 57.5525V59.967H23.4329L22.3949 58.4473H22.3774V59.967H21.873V57.5525H22.3157L23.3455 59.071H23.3665V57.5525H23.8685Z" fill="#DC8630"/>
<path d="M24.3509 57.5525H24.973L25.63 59.1747H25.6579L26.315 57.5525H26.937V59.967H26.4478V58.3954H26.428L25.8105 59.9552H25.4774L24.86 58.3895H24.8402V59.967H24.3509V57.5525Z" fill="#DC8630"/>
<path d="M27.4182 59.967V57.5525H29.0258V57.9734H27.9226V58.5487H28.9431V58.9696H27.9226V59.5461H29.0305V59.967H27.4182Z" fill="#DC8630"/>
<path d="M31.488 57.5525V59.967H31.0523L30.0143 58.4473H29.9969V59.967H29.4924V57.5525H29.9351L30.9649 59.071H30.9859V57.5525H31.488Z" fill="#DC8630"/>
<path d="M31.8795 57.9734V57.5525H33.8389V57.9734H33.1085V59.967H32.6099V57.9734H31.8795Z" fill="#DC8630"/>
<path d="M34.3468 59.967H33.8063L34.6299 57.5525H35.2799L36.1024 59.967H35.5619L34.9643 58.1042H34.9456L34.3468 59.967ZM34.3131 59.0179H35.5898V59.4164H34.3131V59.0179Z" fill="#DC8630"/>
<path d="M36.4552 59.967V57.5525H36.9596V59.5461H37.9824V59.967H36.4552Z" fill="#DC8630"/>
<path d="M41.3992 58.7597C41.3992 59.023 41.3499 59.247 41.2513 59.4317C41.1535 59.6164 41.0199 59.7575 40.8506 59.855C40.682 59.9517 40.4925 60 40.2821 60C40.0701 60 39.8798 59.9513 39.7113 59.8538C39.5427 59.7564 39.4096 59.6153 39.3117 59.4306C39.2138 59.2459 39.1649 59.0222 39.1649 58.7597C39.1649 58.4964 39.2138 58.2724 39.3117 58.0877C39.4096 57.903 39.5427 57.7623 39.7113 57.6656C39.8798 57.5682 40.0701 57.5195 40.2821 57.5195C40.4925 57.5195 40.682 57.5682 40.8506 57.6656C41.0199 57.7623 41.1535 57.903 41.2513 58.0877C41.3499 58.2724 41.3992 58.4964 41.3992 58.7597ZM40.8878 58.7597C40.8878 58.5892 40.8626 58.4453 40.8121 58.3282C40.7624 58.2111 40.6921 58.1223 40.6013 58.0618C40.5104 58.0013 40.404 57.971 40.2821 57.971C40.1602 57.971 40.0538 58.0013 39.9629 58.0618C39.872 58.1223 39.8014 58.2111 39.7509 58.3282C39.7012 58.4453 39.6763 58.5892 39.6763 58.7597C39.6763 58.9303 39.7012 59.0741 39.7509 59.1912C39.8014 59.3083 39.872 59.3972 39.9629 59.4577C40.0538 59.5182 40.1602 59.5485 40.2821 59.5485C40.404 59.5485 40.5104 59.5182 40.6013 59.4577C40.6921 59.3972 40.7624 59.3083 40.8121 59.1912C40.8626 59.0741 40.8878 58.9303 40.8878 58.7597Z" fill="#DC8630"/>
<path d="M41.8385 59.967V57.5525H42.7798C42.9599 57.5525 43.1137 57.5851 43.2411 57.6503C43.3692 57.7148 43.4667 57.8063 43.5335 57.925C43.601 58.0429 43.6348 58.1816 43.6348 58.3412C43.6348 58.5015 43.6006 58.6395 43.5323 58.755C43.464 58.8698 43.3649 58.9578 43.2352 59.0191C43.1063 59.0804 42.9502 59.1111 42.7669 59.1111H42.1367V58.7008H42.6854C42.7817 58.7008 42.8617 58.6874 42.9254 58.6607C42.9891 58.634 43.0364 58.5939 43.0675 58.5404C43.0993 58.487 43.1153 58.4206 43.1153 58.3412C43.1153 58.261 43.0993 58.1934 43.0675 58.1384C43.0364 58.0834 42.9887 58.0417 42.9242 58.0134C42.8605 57.9844 42.7801 57.9698 42.6831 57.9698H42.3429V59.967H41.8385ZM43.1269 58.8682L43.7199 59.967H43.163L42.5829 58.8682H43.1269Z" fill="#DC8630"/>
<path d="M45.6389 58.3329C45.6225 58.2756 45.5996 58.2249 45.5701 58.1809C45.5406 58.1361 45.5045 58.0983 45.4618 58.0677C45.4198 58.0362 45.3717 58.0123 45.3173 57.9958C45.2638 57.9793 45.2043 57.971 45.1391 57.971C45.0172 57.971 44.91 58.0017 44.8176 58.063C44.7259 58.1243 44.6545 58.2135 44.6032 58.3306C44.552 58.4469 44.5264 58.5892 44.5264 58.7574C44.5264 58.9256 44.5516 59.0686 44.6021 59.1865C44.6526 59.3044 44.724 59.3944 44.8164 59.4565C44.9088 59.5178 45.018 59.5485 45.1438 59.5485C45.2579 59.5485 45.3554 59.528 45.4362 59.4872C45.5177 59.4455 45.5798 59.3869 45.6225 59.3115C45.666 59.236 45.6878 59.1468 45.6878 59.0439L45.7903 59.0592H45.1752V58.6748H46.1736V58.979C46.1736 59.1912 46.1293 59.3736 46.0408 59.5261C45.9522 59.6777 45.8303 59.7949 45.675 59.8774C45.5196 59.9591 45.3418 60 45.1414 60C44.9178 60 44.7213 59.9501 44.552 59.8503C44.3827 59.7497 44.2507 59.607 44.1559 59.4223C44.0619 59.2368 44.0149 59.0167 44.0149 58.7621C44.0149 58.5664 44.0429 58.3919 44.0988 58.2386C44.1555 58.0846 44.2347 57.9541 44.3365 57.8472C44.4382 57.7403 44.5566 57.659 44.6918 57.6032C44.8269 57.5474 44.9733 57.5195 45.131 57.5195C45.2661 57.5195 45.3919 57.5395 45.5084 57.5796C45.6249 57.6189 45.7282 57.6747 45.8183 57.747C45.9091 57.8193 45.9833 57.9054 46.0408 58.0052C46.0982 58.1042 46.1351 58.2135 46.1514 58.3329H45.6389Z" fill="#DC8630"/>
<path d="M46.9556 59.967H46.4151L47.2387 57.5525H47.8887L48.7111 59.967H48.1706L47.573 58.1042H47.5544L46.9556 59.967ZM46.9218 59.0179H48.1986V59.4164H46.9218V59.0179Z" fill="#DC8630"/>
<path d="M51.0594 57.5525V59.967H50.6237L49.5858 58.4473H49.5683V59.967H49.0639V57.5525H49.5066L50.5364 59.071H50.5573V57.5525H51.0594Z" fill="#DC8630"/>
<path d="M52.0462 57.5525V59.967H51.5418V57.5525H52.0462Z" fill="#DC8630"/>
<path d="M52.5012 59.967V59.664L53.6917 57.9734H52.4988V57.5525H54.3254V57.8555L53.1337 59.5461H54.3278V59.967H52.5012Z" fill="#DC8630"/>
<path d="M55.1916 59.967H54.6511L55.4747 57.5525H56.1247L56.9472 59.967H56.4067L55.809 58.1042H55.7904L55.1916 59.967ZM55.1579 59.0179H56.4346V59.4164H55.1579V59.0179Z" fill="#DC8630"/>
<path d="M56.9176 57.9734V57.5525H58.877V57.9734H58.1465V59.967H57.648V57.9734H56.9176Z" fill="#DC8630"/>
<path d="M59.7697 57.5525V59.967H59.2652V57.5525H59.7697Z" fill="#DC8630"/>
<path d="M62.4427 58.7597C62.4427 59.023 62.3933 59.247 62.2947 59.4317C62.1969 59.6164 62.0633 59.7575 61.894 59.855C61.7255 59.9517 61.536 60 61.3255 60C61.1135 60 60.9232 59.9513 60.7547 59.8538C60.5862 59.7564 60.453 59.6153 60.3551 59.4306C60.2573 59.2459 60.2083 59.0222 60.2083 58.7597C60.2083 58.4964 60.2573 58.2724 60.3551 58.0877C60.453 57.903 60.5862 57.7623 60.7547 57.6656C60.9232 57.5682 61.1135 57.5195 61.3255 57.5195C61.536 57.5195 61.7255 57.5682 61.894 57.6656C62.0633 57.7623 62.1969 57.903 62.2947 58.0877C62.3933 58.2724 62.4427 58.4964 62.4427 58.7597ZM61.9313 58.7597C61.9313 58.5892 61.906 58.4453 61.8555 58.3282C61.8058 58.2111 61.7355 58.1223 61.6447 58.0618C61.5538 58.0013 61.4474 57.971 61.3255 57.971C61.2036 57.971 61.0972 58.0013 61.0063 58.0618C60.9154 58.1223 60.8448 58.2111 60.7943 58.3282C60.7446 58.4453 60.7197 58.5892 60.7197 58.7597C60.7197 58.9303 60.7446 59.0741 60.7943 59.1912C60.8448 59.3083 60.9154 59.3972 61.0063 59.4577C61.0972 59.5182 61.2036 59.5485 61.3255 59.5485C61.4474 59.5485 61.5538 59.5182 61.6447 59.4577C61.7355 59.3972 61.8058 59.3083 61.8555 59.1912C61.906 59.0741 61.9313 58.9303 61.9313 58.7597Z" fill="#DC8630"/>
<path d="M64.8774 57.5525V59.967H64.4417L63.4038 58.4473H63.3863V59.967H62.8819V57.5525H63.3246L64.3544 59.071H64.3753V57.5525H64.8774Z" fill="#DC8630"/>
</svg>
