<svg width="20" height="20" viewBox="0 0 20 20" fill="none" xmlns="http://www.w3.org/2000/svg">
<g clip-path="url(#clip0_200_6660)">
<path d="M14.9422 1.47496C13.4337 0.594543 11.7862 0.154419 9.99996 0.154419C8.21349 0.154419 6.56601 0.594543 5.05754 1.47496C3.54906 2.35542 2.3546 3.54988 1.47435 5.05815C0.593933 6.56679 0.153809 8.21427 0.153809 10.0006C0.153809 11.992 0.696314 13.7997 1.78194 15.4234C2.86735 17.0477 4.29031 18.2483 6.05118 19.0259C6.01684 18.1114 6.07244 17.3552 6.21786 16.7569L7.48703 11.3979C7.27333 10.9792 7.16656 10.4579 7.16656 9.83386C7.16656 9.1074 7.35031 8.50039 7.7178 8.01345C8.08509 7.5261 8.53396 7.2824 9.06395 7.2824C9.49115 7.2824 9.82036 7.42327 10.0512 7.70566C10.2819 7.98761 10.3974 8.34242 10.3974 8.76966C10.3974 9.03477 10.3481 9.35752 10.2501 9.7377C10.1516 10.1181 10.0235 10.5582 9.86552 11.0582C9.70737 11.5581 9.59418 11.9576 9.5257 12.2569C9.40584 12.7781 9.50428 13.2247 9.82057 13.5966C10.1366 13.9684 10.5556 14.1542 11.077 14.1542C11.9916 14.1542 12.7416 13.6458 13.3271 12.6287C13.9126 11.6116 14.2053 10.3765 14.2053 8.92338C14.2053 7.80386 13.8443 6.89342 13.122 6.1926C12.3997 5.49195 11.3931 5.14132 10.1028 5.14132C8.65817 5.14132 7.48931 5.60518 6.59638 6.53221C5.70324 7.45969 5.25665 8.56881 5.25665 9.85899C5.25665 10.6283 5.47474 11.2738 5.91048 11.7951C6.05574 11.9661 6.10277 12.1497 6.05156 12.3461C6.03429 12.3975 6.00018 12.5257 5.94897 12.7306C5.8978 12.9356 5.86346 13.0684 5.84639 13.1281C5.77791 13.4018 5.61562 13.4873 5.35904 13.3845C4.70085 13.111 4.20078 12.6368 3.8591 11.9615C3.5172 11.2864 3.34634 10.5044 3.34634 9.6155C3.34634 9.04283 3.43812 8.47013 3.62186 7.89747C3.80561 7.3248 4.09174 6.77148 4.48089 6.23707C4.86961 5.70331 5.33554 5.23074 5.87845 4.82057C6.42116 4.4102 7.08145 4.08143 7.85929 3.83315C8.63695 3.58551 9.47473 3.46151 10.3722 3.46151C11.5858 3.46151 12.6756 3.73077 13.6414 4.26909C14.6071 4.80765 15.3444 5.50436 15.853 6.35897C16.3613 7.21362 16.6158 8.12797 16.6158 9.10268C16.6158 10.3847 16.3934 11.5386 15.9492 12.5643C15.5047 13.59 14.8764 14.3955 14.0644 14.9809C13.2522 15.5663 12.3291 15.8591 11.2951 15.8591C10.7736 15.8591 10.2865 15.7374 9.83349 15.4936C9.38024 15.25 9.06834 14.9616 8.89747 14.6282C8.51291 16.1408 8.28214 17.0429 8.20516 17.3332C8.04262 17.9402 7.70927 18.6408 7.20505 19.4358C8.11961 19.7093 9.05123 19.8459 9.99996 19.8459C11.7862 19.8459 13.4337 19.4058 14.9422 18.5256C16.4506 17.6451 17.6451 16.4507 18.5256 14.942C19.4058 13.4335 19.8461 11.7862 19.8461 9.99972C19.8461 8.21325 19.4058 6.56601 18.5256 5.05733C17.6453 3.54988 16.4506 2.35542 14.9422 1.47496Z" fill="#DC8630"/>
</g>
<defs>
<clipPath id="clip0_200_6660">
<rect width="19.6923" height="19.6923" fill="white" transform="translate(0.153809 0.153809)"/>
</clipPath>
</defs>
</svg>
