<svg width="54" height="48" viewBox="0 0 54 48" fill="none" xmlns="http://www.w3.org/2000/svg">
<path d="M26.0377 43.4526L24.5138 43.4287C23.2411 40.8382 21.5476 36.8839 21.1436 33.4646C20.9238 31.6011 19.6186 30.7557 19.1529 30.3911C18.4768 29.8613 16.8021 29.18 14.9035 27.784C13.9208 27.06 12.5832 25.9403 11.3146 24.9234C9.34276 23.3415 8.42277 23.1254 7.44416 24.1745C7.09982 24.5464 6.55557 25.7949 8.05226 27.1119C8.37986 27.4017 9.19937 28.053 9.75409 28.5235C10.2607 28.9525 11.1011 29.7367 12.1279 30.7764C12.9505 31.6126 13.2991 32.4913 13.2991 32.4913C13.2991 32.4913 12.2974 31.7653 11.9384 31.5004C10.8342 30.685 9.37626 29.6536 8.17367 28.5516C6.9669 27.4516 6.20181 26.4337 6.10447 25.3597C6.05318 23.6915 7.08726 23.0912 7.67233 22.7764C7.67233 22.7764 3.99445 16.4196 3.6972 16.0343C3.09434 15.2605 2.11259 14.5375 1.46891 14.5915C1.46159 14.5926 0.951873 14.4814 0.381456 15.0216C0.069558 15.3176 -0.0528985 15.9751 0.530078 17.1779C0.530078 17.1779 2.85675 22.3745 4.5994 29.4874C4.5994 29.4874 4.80768 30.2976 5.44927 30.8273C8.787 33.3108 12.0295 36.3885 12.3508 36.7157C13.9637 38.3641 15.7042 40.3604 16.3301 43.2999L14.9789 43.2802L15.2657 47.8567L26.1633 47.9927L26.0377 43.4526ZM18.2277 46.1418C17.9388 46.4389 17.4636 46.4513 17.1611 46.1636C16.8608 45.878 16.8503 45.4064 17.1381 45.1041C17.4259 44.806 17.9022 44.7946 18.2046 45.0823C18.505 45.368 18.5155 45.8406 18.2277 46.1418Z" fill="white"/>
<path d="M48.5519 30.8305C49.1924 30.3008 49.3997 29.4906 49.3997 29.4906C51.1455 22.3776 53.4711 17.1811 53.4711 17.1811C54.053 15.9783 53.9306 15.3208 53.6187 15.0247C53.0493 14.4846 52.5396 14.5958 52.5323 14.5947C51.8886 14.5407 50.9058 15.2636 50.304 16.0375C50.0078 16.4239 46.3288 22.7806 46.3288 22.7806C46.9129 23.0954 47.9459 23.6947 47.8956 25.3639C47.7973 26.4389 47.0343 27.4579 45.8275 28.5558C44.6239 29.6589 43.1648 30.6892 42.0617 31.5046C41.7037 31.7695 40.7011 32.4955 40.7011 32.4955C40.7011 32.4955 41.0506 31.6168 41.8722 30.7806C42.8969 29.7409 43.7395 28.9557 44.2471 28.5277C44.8028 28.0572 45.6213 27.4059 45.9479 27.1161C47.4456 25.798 46.9013 24.5506 46.557 24.1787C45.5773 23.1276 44.6594 23.3446 42.6865 24.9276C41.4191 25.9445 40.0815 27.0652 39.0976 27.7882C37.198 29.1842 35.5254 29.8656 34.8462 30.3963C34.3804 30.7599 33.0753 31.6054 32.8544 33.4688C32.4515 36.8892 30.758 40.8424 29.4863 43.4329L27.9614 43.4547L27.8379 48.0001L38.7344 47.8619L39.0212 43.2865L37.67 43.3073C38.2948 40.3667 40.0364 38.3704 41.6493 36.722C41.9696 36.3916 45.2121 33.314 48.5519 30.8305ZM36.839 46.1637C36.5365 46.4514 36.0603 46.4399 35.7704 46.1418C35.4825 45.8417 35.493 45.368 35.7934 45.0824C36.0938 44.7967 36.571 44.8071 36.861 45.1042C37.1498 45.4044 37.1404 45.878 36.839 46.1637Z" fill="white"/>
<path d="M30.2852 0V3.00078H17.5016L13.2711 7.56375C12.664 8.21501 12.707 9.23293 13.3653 9.83537L15.0336 11.3581L19.2055 6.85952H34.8695L38.9336 11.3435L40.6187 9.83848C41.2843 9.24435 41.3388 8.22851 40.7401 7.5679L36.6017 3.00182H33.7643V0H30.2852Z" fill="white"/>
<path d="M28.4993 14.5863H35.314V27.2292H36.2225C37.1163 27.2292 37.8416 26.5084 37.8416 25.6214V11.6925L34.6577 8.15576H19.6364L16.1406 12.1204V25.6214C16.1406 26.5084 16.8659 27.2292 17.7598 27.2292H28.4983L28.4993 14.5863ZM21.6826 24.2181H19.1476V21.7024H21.6826V24.2181ZM21.7611 20.2077H19.2261V17.692H21.7611V20.2077ZM26.1182 24.2181H23.5822V21.7024H26.1182V24.2181ZM26.1988 20.2077H23.6639V17.692H26.1988V20.2077Z" fill="white"/>
</svg>
