<svg width="66" height="60" viewBox="0 0 66 60" fill="none" xmlns="http://www.w3.org/2000/svg">
<path d="M8.6062 22.3181C9.27625 22.3181 9.74529 22.0524 10.0133 21.521C10.2813 20.9896 10.2813 20.4582 10.0133 19.9268C9.74529 19.3955 9.27625 19.1298 8.6062 19.1298C7.93614 19.1298 7.46711 19.3955 7.19908 19.9268C6.93106 20.4582 6.93106 20.9896 7.19908 21.521C7.46711 22.0524 7.93614 22.3181 8.6062 22.3181ZM45.6183 20.8734C45.4508 20.6575 45.1284 20.2423 44.6509 19.6279C44.1735 19.0135 43.8259 18.5652 43.6082 18.2829C43.3904 18.0006 43.0721 17.5937 42.6533 17.0624C42.2346 16.531 41.8786 16.0909 41.5854 15.7422C41.2923 15.3935 40.9531 15.0032 40.5678 14.5715C40.1825 14.1398 39.8056 13.7329 39.4371 13.351L36.2962 16.8382C34.9058 18.3991 33.1595 19.163 31.0572 19.1298C28.9549 19.0966 27.2337 18.2829 25.8936 16.6887C24.9388 15.5429 24.4656 14.2311 24.4739 12.7532C24.4823 11.2753 24.9723 9.97172 25.9439 8.84253L30.3913 3.71137C30.0228 3.52871 29.5957 3.39171 29.1099 3.30038C28.6241 3.20905 28.2262 3.15923 27.9163 3.15093C27.6064 3.14263 27.1332 3.14678 26.4967 3.16339C25.8601 3.17999 25.4497 3.18829 25.2654 3.18829C23.7243 3.18829 22.4009 3.73628 21.2954 4.83226L17.3253 8.76781H13.4306V22.3181C13.5143 22.3181 13.6902 22.3139 13.9583 22.3056C14.2263 22.2973 14.4105 22.2973 14.5111 22.3056C14.6116 22.3139 14.7749 22.3305 15.001 22.3554C15.2272 22.3803 15.3989 22.4177 15.5161 22.4675C15.6334 22.5173 15.78 22.5879 15.9559 22.6792C16.1317 22.7706 16.2867 22.8827 16.4207 23.0155L23.8834 30.2888C25.8098 32.132 27.7111 33.0536 29.5873 33.0536C30.8939 33.0536 31.9408 32.6634 32.7282 31.8829C33.683 32.215 34.6253 32.1486 35.555 31.6837C36.4847 31.2187 37.0919 30.513 37.3767 29.5664C38.6163 29.6661 39.68 29.3008 40.5678 28.4705C40.9028 28.1716 41.2043 27.7938 41.4724 27.3371C41.7404 26.8805 41.8577 26.4612 41.8242 26.0792C41.9917 26.2453 42.3518 26.3283 42.9046 26.3283C43.6249 26.3283 44.2698 26.154 44.8394 25.8053C45.4089 25.4565 45.8235 25.0165 46.0832 24.4851C46.3428 23.9537 46.4433 23.3601 46.3847 22.7041C46.3261 22.0482 46.0706 21.438 45.6183 20.8734ZM49.6135 22.3181H52.0257V9.56488H49.6889L45.744 5.08134C44.6384 3.81931 43.2229 3.18829 41.4975 3.18829H37.3013C35.8104 3.18829 34.5876 3.74458 33.6327 4.85717L28.3812 10.9099C27.9121 11.4579 27.6776 12.0806 27.6776 12.7781C27.6776 13.4755 27.9038 14.0982 28.3561 14.6462C29.0764 15.4931 29.9977 15.9249 31.12 15.9415C32.2424 15.9581 33.1721 15.5512 33.9091 14.721L38.7587 9.29089C39.1774 8.90896 39.6255 8.73045 40.1029 8.75535C40.5804 8.78026 40.974 9.00444 41.2839 9.42789C41.5938 9.85133 41.665 10.3204 41.4975 10.8352C41.7655 11.1507 42.2346 11.6738 42.9046 12.4045C43.5747 13.1351 44.0772 13.6997 44.4122 14.0982C44.898 14.696 45.589 15.572 46.4852 16.7261C47.3814 17.8802 47.9216 18.5818 48.1059 18.8309C48.977 19.9268 49.4795 21.0892 49.6135 22.3181ZM56.8501 22.3181C57.5202 22.3181 57.9892 22.0524 58.2572 21.521C58.5253 20.9896 58.5253 20.4582 58.2572 19.9268C57.9892 19.3955 57.5202 19.1298 56.8501 19.1298C56.1801 19.1298 55.711 19.3955 55.443 19.9268C55.175 20.4582 55.175 20.9896 55.443 21.521C55.711 22.0524 56.1801 22.3181 56.8501 22.3181ZM61.6745 7.97073V23.9122C61.6745 24.344 61.5154 24.7176 61.1971 25.0331C60.8788 25.3486 60.5019 25.5064 60.0664 25.5064H49.1612C48.709 26.5857 48.0222 27.47 47.1008 28.1591C46.1795 28.8482 45.1325 29.2758 43.9599 29.4419C43.4072 30.239 42.7329 30.9157 41.9372 31.4719C41.1415 32.0282 40.283 32.406 39.3617 32.6053C38.6581 33.4854 37.7829 34.1621 36.7359 34.6353C35.689 35.1086 34.6127 35.312 33.5071 35.2456C32.502 35.8102 31.4467 36.1381 30.3411 36.2295C29.2355 36.3208 28.1676 36.2046 27.1374 35.8808C26.1072 35.5569 25.1272 35.1127 24.1975 34.5482C23.2678 33.9836 22.4009 33.311 21.5969 32.5306L14.3854 25.5064H5.38994C4.9544 25.5064 4.5775 25.3486 4.25922 25.0331C3.94095 24.7176 3.78181 24.344 3.78181 23.9122V7.17366C3.78181 6.74191 3.94095 6.36828 4.25922 6.05278C4.5775 5.73727 4.9544 5.57951 5.38994 5.57951H15.9684C16.2029 5.34703 16.5966 4.9485 17.1494 4.3839C17.7022 3.81931 18.1 3.42077 18.3429 3.18829C18.5858 2.95581 18.9544 2.6237 19.4485 2.19195C19.9427 1.7602 20.3657 1.44885 20.7174 1.25788C21.0692 1.06692 21.4964 0.855193 21.9989 0.622714C22.5015 0.390234 23.0207 0.228328 23.5568 0.136997C24.0928 0.0456657 24.6624 0 25.2654 0H28.2053C29.8637 0 31.3797 0.46496 32.7533 1.39488C34.1269 0.46496 35.6429 0 37.3013 0H41.4975C42.0838 0 42.645 0.0498171 43.181 0.149451C43.7171 0.249085 44.1903 0.369477 44.6007 0.510625C45.0111 0.651774 45.4424 0.871799 45.8947 1.1707C46.347 1.4696 46.7197 1.72699 47.0129 1.94287C47.306 2.15874 47.6662 2.4867 48.0933 2.92675C48.5205 3.36681 48.8472 3.71552 49.0733 3.97291C49.2994 4.2303 49.6428 4.62884 50.1035 5.16852C50.5642 5.70821 50.9118 6.1109 51.1463 6.37659H60.0664C60.5019 6.37659 60.8788 6.53434 61.1971 6.84985C61.5154 7.16536 61.6745 7.53899 61.6745 7.97073Z" fill="#DC8630"/>
<path d="M3.49252 41.8757C4.79704 41.8757 5.44544 42.8252 5.44544 43.7669C5.44544 44.7163 4.79704 45.658 3.49252 45.658H2.41958V47.2713H0.798584V41.8757H3.49252ZM2.41958 44.3072H3.38446C3.64691 44.3072 3.78585 44.0371 3.78585 43.7669C3.78585 43.4967 3.64691 43.2266 3.38446 43.2266H2.41958V44.3072Z" fill="#DC8630"/>
<path d="M7.93036 45.3956H7.59073V47.279H5.96973V41.8834H8.66367C9.96819 41.8834 10.6243 42.7634 10.6243 43.6357C10.6243 44.2995 10.2538 44.9556 9.52048 45.2412L10.9948 47.279H9.21172L7.93036 45.3956ZM7.59073 44.0371H8.5556C8.81805 44.0371 8.95699 43.8364 8.95699 43.6357C8.95699 43.435 8.81805 43.2343 8.5556 43.2343H7.59073V44.0371Z" fill="#DC8630"/>
<path d="M11.2539 41.8757H12.8749V47.2713H11.2539V41.8757Z" fill="#DC8630"/>
<path d="M14.6075 41.8757L15.6882 45.9668L16.7611 41.8757H18.3821L16.6453 47.2713H14.731L12.9865 41.8757H14.6075Z" fill="#DC8630"/>
<path d="M21.2617 46.0903H19.7333L19.4168 47.279H17.7958L19.5403 41.8834H21.4546L23.1914 47.279H21.5704L21.2617 46.0903ZM20.0884 44.7395H20.9066L20.4975 43.188L20.0884 44.7395Z" fill="#DC8630"/>
<path d="M27.252 43.2266H25.8471V47.279H24.2261V43.2266H22.8213V41.8757H27.252V43.2266Z" fill="#DC8630"/>
<path d="M29.195 43.2343V43.929H31.4566V45.2258H29.195V45.9282H31.7268V47.279H27.574V41.8834H31.7268V43.2343H29.195Z" fill="#DC8630"/>
<path d="M36.2827 42.9564C35.943 42.9564 35.5571 43.1031 35.5571 43.4041C35.5571 43.7129 36.0434 43.8364 36.6223 43.9985C37.5177 44.23 38.6524 44.5388 38.6524 45.658C38.6524 46.592 37.7493 47.4566 36.1591 47.4566C35.2715 47.4566 34.3066 47.0552 33.7817 46.4222L34.7929 45.604C35.0245 45.9359 35.5648 46.1907 36.2132 46.1907C36.6686 46.1907 37.1009 46.0749 37.1009 45.7121C37.1009 45.4033 36.6223 45.2721 36.0434 45.1332C35.1402 44.9093 33.9978 44.5156 33.9978 43.4272C33.9978 42.4932 34.9087 41.6982 36.2827 41.6982C37.1703 41.6982 37.9654 42.0996 38.4903 42.7325L37.4868 43.543C37.2475 43.2111 36.9233 42.9564 36.2827 42.9564Z" fill="#DC8630"/>
<path d="M40.7961 43.2343V43.929H43.0578V45.2258H40.7961V45.9282H43.328V47.279H39.1751V41.8834H43.328V43.2343H40.7961Z" fill="#DC8630"/>
<path d="M46.6874 46.0054C47.1273 46.0054 47.4979 45.7816 47.7371 45.4496L48.9027 46.4222C48.3701 47.0552 47.575 47.4566 46.6874 47.4566C45.0972 47.4566 43.8082 46.1675 43.8082 44.5774C43.8082 42.9873 45.0972 41.6982 46.6874 41.6982C47.575 41.6982 48.3701 42.0996 48.9027 42.7325L47.7371 43.6974C47.4979 43.3655 47.1273 43.1416 46.6874 43.1416C45.9232 43.1416 45.3597 43.8132 45.3597 44.5774C45.3597 45.3339 45.9232 46.0054 46.6874 46.0054Z" fill="#DC8630"/>
<path d="M53.5374 43.2266H52.1325V47.279H50.5115V43.2266H49.1067V41.8757H53.5374V43.2266Z" fill="#DC8630"/>
<path d="M56.6151 41.6982C58.2052 41.6982 59.4943 42.9873 59.4943 44.5774C59.4943 46.1675 58.2052 47.4566 56.6151 47.4566C55.0249 47.4566 53.7359 46.1675 53.7359 44.5774C53.7359 42.9873 55.0249 41.6982 56.6151 41.6982ZM55.2874 44.5774C55.2874 45.3416 55.8509 46.0131 56.6151 46.0131C57.3792 46.0131 57.9427 45.3416 57.9427 44.5774C57.9427 43.8209 57.3792 43.1494 56.6151 43.1494C55.8509 43.1494 55.2874 43.8209 55.2874 44.5774Z" fill="#DC8630"/>
<path d="M62.1369 45.3956H61.7973V47.279H60.1763V41.8834H62.8702C64.1748 41.8834 64.8309 42.7634 64.8309 43.6357C64.8309 44.2995 64.4604 44.9556 63.7271 45.2412L65.2014 47.279H63.4183L62.1369 45.3956ZM61.7973 44.0371H62.7622C63.0246 44.0371 63.1636 43.8364 63.1636 43.6357C63.1636 43.435 63.0246 43.2343 62.7622 43.2343H61.7973V44.0371Z" fill="#DC8630"/>
<path d="M9.11596 54.4191C10.4205 54.4191 11.0689 55.3686 11.0689 56.3103C11.0689 57.2597 10.4205 58.2015 9.11596 58.2015H8.04301V59.8147H6.42202V54.4191H9.11596ZM8.04301 56.8506H9.00789C9.27034 56.8506 9.40928 56.5805 9.40928 56.3103C9.40928 56.0401 9.27034 55.77 9.00789 55.77H8.04301V56.8506Z" fill="#DC8630"/>
<path d="M14.3643 58.6337H12.8359L12.5194 59.8225H10.8984L12.6429 54.4269H14.5573L16.294 59.8225H14.6731L14.3643 58.6337ZM13.191 57.2829H14.0092L13.6001 55.7314L13.191 57.2829Z" fill="#DC8630"/>
<path d="M18.3631 57.939H18.0235V59.8225H16.4025V54.4269H19.0964C20.4009 54.4269 21.0571 55.3068 21.0571 56.1791C21.0571 56.8429 20.6865 57.499 19.9532 57.7846L21.4276 59.8225H19.6445L18.3631 57.939ZM18.0235 56.5805H18.9884C19.2508 56.5805 19.3897 56.3798 19.3897 56.1791C19.3897 55.9784 19.2508 55.7777 18.9884 55.7777H18.0235V56.5805Z" fill="#DC8630"/>
<path d="M25.6388 55.77H24.234V59.8225H22.613V55.77H21.2081V54.4191H25.6388V55.77Z" fill="#DC8630"/>
<path d="M30.8161 54.4269V59.8225H29.1951L27.5818 57.1362V59.8225H25.9608V54.4269H27.5818L29.1951 57.1054V54.4269H30.8161Z" fill="#DC8630"/>
<path d="M33.2429 55.7777V56.4724H35.5046V57.7692H33.2429V58.4716H35.7748V59.8225H31.6219V54.4269H35.7748V55.7777H33.2429Z" fill="#DC8630"/>
<path d="M38.3391 57.939H37.9995V59.8225H36.3785V54.4269H39.0724C40.3769 54.4269 41.0331 55.3068 41.0331 56.1791C41.0331 56.8429 40.6625 57.499 39.9292 57.7846L41.4036 59.8225H39.6205L38.3391 57.939ZM37.9995 56.5805H38.9644C39.2268 56.5805 39.3657 56.3798 39.3657 56.1791C39.3657 55.9784 39.2268 55.7777 38.9644 55.7777H37.9995V56.5805Z" fill="#DC8630"/>
<path d="M43.6851 55.4998C43.3454 55.4998 42.9595 55.6465 42.9595 55.9475C42.9595 56.2563 43.4458 56.3798 44.0247 56.5419C44.9201 56.7734 46.0548 57.0822 46.0548 58.2015C46.0548 59.1355 45.1517 60 43.5616 60C42.6739 60 41.709 59.5986 41.1841 58.9657L42.1953 58.1474C42.4269 58.4794 42.9672 58.7341 43.6156 58.7341C44.071 58.7341 44.5033 58.6183 44.5033 58.2555C44.5033 57.9467 44.0247 57.8155 43.4458 57.6766C42.5427 57.4527 41.4002 57.0591 41.4002 55.9707C41.4002 55.0367 42.3111 54.2416 43.6851 54.2416C44.5728 54.2416 45.3678 54.643 45.8927 55.276L44.8892 56.0865C44.65 55.7545 44.3258 55.4998 43.6851 55.4998Z" fill="#DC8630"/>
<path d="M51.4328 54.4191V59.8225H49.8118V57.7924H48.1985V59.8225H46.5775V54.4191H48.1985V56.4415H49.8118V54.4191H51.4328Z" fill="#DC8630"/>
<path d="M52.2387 54.4191H53.8597V59.8147H52.2387V54.4191Z" fill="#DC8630"/>
<path d="M57.3599 54.4191C58.6644 54.4191 59.3128 55.3686 59.3128 56.3103C59.3128 57.2597 58.6644 58.2015 57.3599 58.2015H56.2869V59.8147H54.6659V54.4191H57.3599ZM56.2869 56.8506H57.2518C57.5143 56.8506 57.6532 56.5805 57.6532 56.3103C57.6532 56.0401 57.5143 55.77 57.2518 55.77H56.2869V56.8506Z" fill="#DC8630"/>
</svg>
