<svg width="48" height="48" viewBox="0 0 48 48" fill="none" xmlns="http://www.w3.org/2000/svg">
<rect width="48" height="48" rx="24" fill="white"/>
<path d="M39.9914 15.832C39.9914 15.8127 39.9943 15.7961 39.9943 15.7769C39.9943 15.3444 39.6301 15 39.1828 15H8.8086C8.36129 15 8 15.3444 8 15.7769V16.0276C8 16.0689 8 16.1157 8.00287 16.1598H8C8 22.0221 11.4122 27.1157 16.4358 29.708C16.2867 30.0083 16.2007 30.3443 16.2007 30.6997C16.2007 31.9697 17.2703 33 18.5921 33H29.4021C30.724 33 31.7964 31.9697 31.7964 30.6997C31.7964 30.3443 31.7104 30.011 31.5613 29.708C36.5821 27.1157 40 22.0221 40 16.1598H39.9943C39.9943 16.1157 40 16.0689 40 16.0276C40 15.9614 39.9971 15.8953 39.9971 15.832" fill="#505050"/>
<path d="M39.9914 15.832C39.9914 15.8127 39.9943 15.7961 39.9943 15.7769C39.9943 15.3444 39.6301 15 39.1828 15H23.9971V33H29.4021C30.7211 33 31.7936 31.9697 31.7936 30.6997C31.7936 30.3443 31.7075 30.011 31.5584 29.708C36.5792 27.1157 39.9971 22.0221 39.9971 16.1598H39.9914C39.9914 16.1157 39.9971 16.0689 39.9971 16.0276C39.9971 15.9614 39.9943 15.8953 39.9943 15.832" fill="#414141"/>
<path d="M19.2001 22.113C19.2001 20.6529 20.4359 19.4711 21.9499 19.4711C22.7614 19.4711 23.4897 19.8072 23.9943 20.3416C24.499 19.8072 25.2245 19.4711 26.0359 19.4711C27.5556 19.4711 28.7886 20.6529 28.7886 22.113C28.7886 22.843 28.4789 23.5069 27.98 23.9835L23.9915 28.022L19.9628 23.9394C19.4897 23.4628 19.1972 22.821 19.1972 22.1102" fill="white"/>
<path d="M26.0359 19.4711C25.2245 19.4711 24.499 19.8072 23.9943 20.3416L23.9943 28.022L27.98 23.9835C28.4818 23.5042 28.7886 22.843 28.7886 22.113C28.7886 20.6529 27.5556 19.4711 26.0359 19.4711Z" fill="#DFDFDF"/>
</svg>
