<svg width="20" height="20" viewBox="0 0 20 20" fill="none" xmlns="http://www.w3.org/2000/svg">
<g clip-path="url(#clip0_200_6646)">
<path d="M19.8461 3.89415C19.1138 4.21538 18.3335 4.42831 17.52 4.53169C18.3569 4.032 18.9957 3.24677 19.296 2.30031C18.5157 2.76554 17.6541 3.09415 16.736 3.27754C15.995 2.48862 14.939 2 13.787 2C11.552 2 9.75258 3.81415 9.75258 6.03815C9.75258 6.35815 9.77965 6.66585 9.84612 6.95877C6.48981 6.79508 3.51996 5.18646 1.52489 2.736C1.17658 3.34031 0.97227 4.032 0.97227 4.77661C0.97227 6.17477 1.69227 7.41415 2.7655 8.13169C2.11689 8.11938 1.48058 7.93108 0.941501 7.63446C0.941501 7.64677 0.941501 7.66277 0.941501 7.67877C0.941501 9.64061 2.34089 11.2702 4.17596 11.6455C3.84735 11.7354 3.48919 11.7785 3.1175 11.7785C2.85904 11.7785 2.59812 11.7637 2.35319 11.7095C2.87627 13.3083 4.36058 14.4837 6.1255 14.5218C4.75196 15.5963 3.00796 16.2437 1.11996 16.2437C0.788886 16.2437 0.471347 16.2289 0.153809 16.1883C1.94212 17.3415 4.0615 18 6.34704 18C13.776 18 17.8375 11.8462 17.8375 6.512C17.8375 6.33354 17.8313 6.16123 17.8227 5.99015C18.624 5.42154 19.2972 4.71138 19.8461 3.89415Z" fill="#DC8630"/>
</g>
<defs>
<clipPath id="clip0_200_6646">
<rect width="19.6923" height="19.6923" fill="white" transform="translate(0.153809 0.153809)"/>
</clipPath>
</defs>
</svg>
