<svg width="20" height="20" viewBox="0 0 20 20" fill="none" xmlns="http://www.w3.org/2000/svg">
<g clip-path="url(#clip0_200_6667)">
<path d="M18.8409 5.38564C18.6282 4.59474 18.0046 3.97128 17.2138 3.75832C15.7691 3.36304 9.99031 3.36304 9.99031 3.36304C9.99031 3.36304 4.21173 3.36304 2.76705 3.74333C1.99147 3.95607 1.35269 4.59486 1.13995 5.38564C0.759766 6.8302 0.759766 9.82603 0.759766 9.82603C0.759766 9.82603 0.759766 12.837 1.13995 14.2664C1.35291 15.0572 1.97626 15.6807 2.76716 15.8936C4.22694 16.289 9.99053 16.289 9.99053 16.289C9.99053 16.289 15.7691 16.289 17.2138 15.9087C18.0047 15.6959 18.6282 15.0724 18.8411 14.2816C19.2212 12.837 19.2212 9.84124 19.2212 9.84124C19.2212 9.84124 19.2364 6.8302 18.8409 5.38564ZM8.15046 12.5937V7.05838L12.9558 9.82603L8.15046 12.5937Z" fill="#DC8630"/>
</g>
<defs>
<clipPath id="clip0_200_6667">
<rect width="19.6923" height="19.6923" fill="white" transform="translate(0.153809 0.153809)"/>
</clipPath>
</defs>
</svg>
